G04 #@! TF.FileFunction,Legend,Bot*
%FSLAX46Y46*%
G04 Gerber Fmt 4.6, Leading zero omitted, Abs format (unit mm)*
G04 Created by KiCad (PCBNEW 4.0.1-3.201512221401+6198~38~ubuntu15.10.1-stable) date Thu 31 Mar 2016 12:50:45 PM EEST*
%MOMM*%
G01*
G04 APERTURE LIST*
%ADD10C,0.100000*%
%ADD11C,0.508000*%
%ADD12C,0.222250*%
%ADD13C,0.254000*%
%ADD14C,1.000000*%
%ADD15C,0.150000*%
%ADD16C,0.370000*%
%ADD17C,0.380000*%
%ADD18C,0.400000*%
%ADD19C,0.420000*%
%ADD20C,0.200000*%
%ADD21C,0.127000*%
%ADD22C,0.700000*%
%ADD23C,0.500000*%
%ADD24C,0.180000*%
%ADD25C,0.350000*%
G04 APERTURE END LIST*
D10*
D11*
X148590000Y-116586000D02*
X152400000Y-116586000D01*
X127635000Y-116586000D02*
X131445000Y-116586000D01*
X127635000Y-75946000D02*
X131445000Y-75946000D01*
X127635000Y-78486000D02*
X131445000Y-78486000D01*
X127635000Y-81026000D02*
X131445000Y-81026000D01*
X127635000Y-83566000D02*
X131445000Y-83566000D01*
X127635000Y-86106000D02*
X131445000Y-86106000D01*
X127635000Y-88646000D02*
X131445000Y-88646000D01*
X127635000Y-91186000D02*
X131445000Y-91186000D01*
X127635000Y-93726000D02*
X131445000Y-93726000D01*
X127635000Y-96266000D02*
X131445000Y-96266000D01*
X127635000Y-98806000D02*
X131445000Y-98806000D01*
X127635000Y-101346000D02*
X131445000Y-101346000D01*
X127635000Y-103886000D02*
X131445000Y-103886000D01*
X127635000Y-106426000D02*
X131318000Y-106426000D01*
X127635000Y-108966000D02*
X131445000Y-108966000D01*
X127635000Y-111506000D02*
X131445000Y-111506000D01*
X127635000Y-114046000D02*
X131445000Y-114046000D01*
X148844000Y-75946000D02*
X152400000Y-75946000D01*
X148590000Y-78486000D02*
X152400000Y-78486000D01*
X148590000Y-81026000D02*
X152400000Y-81026000D01*
X148590000Y-83566000D02*
X152400000Y-83566000D01*
X148590000Y-86106000D02*
X152400000Y-86106000D01*
X148590000Y-88646000D02*
X152400000Y-88646000D01*
X148590000Y-91186000D02*
X152400000Y-91186000D01*
X148590000Y-93726000D02*
X152400000Y-93726000D01*
X148590000Y-96266000D02*
X152400000Y-96266000D01*
X148590000Y-98806000D02*
X152400000Y-98806000D01*
X148590000Y-101346000D02*
X152400000Y-101346000D01*
X148590000Y-103886000D02*
X152400000Y-103886000D01*
X148590000Y-106426000D02*
X152400000Y-106426000D01*
X148590000Y-108966000D02*
X152400000Y-108966000D01*
X148590000Y-111506000D02*
X152400000Y-111506000D01*
X148590000Y-114046000D02*
X152400000Y-114046000D01*
X150495000Y-73660000D02*
X150495000Y-116586000D01*
X129540000Y-116586000D02*
X129540000Y-73660000D01*
D12*
X148060831Y-80158167D02*
X148060831Y-79269167D01*
X147679831Y-80158167D02*
X147679831Y-79692500D01*
X147722165Y-79607833D01*
X147806831Y-79565500D01*
X147933831Y-79565500D01*
X148018498Y-79607833D01*
X148060831Y-79650167D01*
X147383498Y-79565500D02*
X147044832Y-79565500D01*
X147256498Y-79269167D02*
X147256498Y-80031167D01*
X147214165Y-80115833D01*
X147129498Y-80158167D01*
X147044832Y-80158167D01*
X146875498Y-79565500D02*
X146536832Y-79565500D01*
X146748498Y-79269167D02*
X146748498Y-80031167D01*
X146706165Y-80115833D01*
X146621498Y-80158167D01*
X146536832Y-80158167D01*
X146240498Y-79565500D02*
X146240498Y-80454500D01*
X146240498Y-79607833D02*
X146155832Y-79565500D01*
X145986498Y-79565500D01*
X145901832Y-79607833D01*
X145859498Y-79650167D01*
X145817165Y-79734833D01*
X145817165Y-79988833D01*
X145859498Y-80073500D01*
X145901832Y-80115833D01*
X145986498Y-80158167D01*
X146155832Y-80158167D01*
X146240498Y-80115833D01*
X145478499Y-80115833D02*
X145393832Y-80158167D01*
X145224499Y-80158167D01*
X145139832Y-80115833D01*
X145097499Y-80031167D01*
X145097499Y-79988833D01*
X145139832Y-79904167D01*
X145224499Y-79861833D01*
X145351499Y-79861833D01*
X145436165Y-79819500D01*
X145478499Y-79734833D01*
X145478499Y-79692500D01*
X145436165Y-79607833D01*
X145351499Y-79565500D01*
X145224499Y-79565500D01*
X145139832Y-79607833D01*
X144716498Y-80073500D02*
X144674165Y-80115833D01*
X144716498Y-80158167D01*
X144758832Y-80115833D01*
X144716498Y-80073500D01*
X144716498Y-80158167D01*
X144716498Y-79607833D02*
X144674165Y-79650167D01*
X144716498Y-79692500D01*
X144758832Y-79650167D01*
X144716498Y-79607833D01*
X144716498Y-79692500D01*
X143658165Y-79226833D02*
X144420165Y-80369833D01*
X142726832Y-79226833D02*
X143488832Y-80369833D01*
X142515166Y-79565500D02*
X142345833Y-80158167D01*
X142176499Y-79734833D01*
X142007166Y-80158167D01*
X141837833Y-79565500D01*
X141583833Y-79565500D02*
X141414500Y-80158167D01*
X141245166Y-79734833D01*
X141075833Y-80158167D01*
X140906500Y-79565500D01*
X140652500Y-79565500D02*
X140483167Y-80158167D01*
X140313833Y-79734833D01*
X140144500Y-80158167D01*
X139975167Y-79565500D01*
X139636500Y-80073500D02*
X139594167Y-80115833D01*
X139636500Y-80158167D01*
X139678834Y-80115833D01*
X139636500Y-80073500D01*
X139636500Y-80158167D01*
X139086167Y-80158167D02*
X139170834Y-80115833D01*
X139213167Y-80073500D01*
X139255501Y-79988833D01*
X139255501Y-79734833D01*
X139213167Y-79650167D01*
X139170834Y-79607833D01*
X139086167Y-79565500D01*
X138959167Y-79565500D01*
X138874501Y-79607833D01*
X138832167Y-79650167D01*
X138789834Y-79734833D01*
X138789834Y-79988833D01*
X138832167Y-80073500D01*
X138874501Y-80115833D01*
X138959167Y-80158167D01*
X139086167Y-80158167D01*
X138281834Y-80158167D02*
X138366501Y-80115833D01*
X138408834Y-80031167D01*
X138408834Y-79269167D01*
X137943167Y-80158167D02*
X137943167Y-79565500D01*
X137943167Y-79269167D02*
X137985501Y-79311500D01*
X137943167Y-79353833D01*
X137900834Y-79311500D01*
X137943167Y-79269167D01*
X137943167Y-79353833D01*
X137519834Y-80158167D02*
X137519834Y-79565500D01*
X137519834Y-79650167D02*
X137477501Y-79607833D01*
X137392834Y-79565500D01*
X137265834Y-79565500D01*
X137181168Y-79607833D01*
X137138834Y-79692500D01*
X137138834Y-80158167D01*
X137138834Y-79692500D02*
X137096501Y-79607833D01*
X137011834Y-79565500D01*
X136884834Y-79565500D01*
X136800168Y-79607833D01*
X136757834Y-79692500D01*
X136757834Y-80158167D01*
X135995835Y-80115833D02*
X136080501Y-80158167D01*
X136249835Y-80158167D01*
X136334501Y-80115833D01*
X136376835Y-80031167D01*
X136376835Y-79692500D01*
X136334501Y-79607833D01*
X136249835Y-79565500D01*
X136080501Y-79565500D01*
X135995835Y-79607833D01*
X135953501Y-79692500D01*
X135953501Y-79777167D01*
X136376835Y-79861833D01*
X135657168Y-80158167D02*
X135191501Y-79565500D01*
X135657168Y-79565500D02*
X135191501Y-80158167D01*
X134852834Y-80073500D02*
X134810501Y-80115833D01*
X134852834Y-80158167D01*
X134895168Y-80115833D01*
X134852834Y-80073500D01*
X134852834Y-80158167D01*
X134048501Y-80115833D02*
X134133168Y-80158167D01*
X134302501Y-80158167D01*
X134387168Y-80115833D01*
X134429501Y-80073500D01*
X134471835Y-79988833D01*
X134471835Y-79734833D01*
X134429501Y-79650167D01*
X134387168Y-79607833D01*
X134302501Y-79565500D01*
X134133168Y-79565500D01*
X134048501Y-79607833D01*
X133540501Y-80158167D02*
X133625168Y-80115833D01*
X133667501Y-80073500D01*
X133709835Y-79988833D01*
X133709835Y-79734833D01*
X133667501Y-79650167D01*
X133625168Y-79607833D01*
X133540501Y-79565500D01*
X133413501Y-79565500D01*
X133328835Y-79607833D01*
X133286501Y-79650167D01*
X133244168Y-79734833D01*
X133244168Y-79988833D01*
X133286501Y-80073500D01*
X133328835Y-80115833D01*
X133413501Y-80158167D01*
X133540501Y-80158167D01*
X132863168Y-80158167D02*
X132863168Y-79565500D01*
X132863168Y-79650167D02*
X132820835Y-79607833D01*
X132736168Y-79565500D01*
X132609168Y-79565500D01*
X132524502Y-79607833D01*
X132482168Y-79692500D01*
X132482168Y-80158167D01*
X132482168Y-79692500D02*
X132439835Y-79607833D01*
X132355168Y-79565500D01*
X132228168Y-79565500D01*
X132143502Y-79607833D01*
X132101168Y-79692500D01*
X132101168Y-80158167D01*
D11*
X149993048Y-73285048D02*
X149993048Y-71591714D01*
X149993048Y-70745048D02*
X150114000Y-70866000D01*
X149993048Y-70986952D01*
X149872096Y-70866000D01*
X149993048Y-70745048D01*
X149993048Y-70986952D01*
X147332096Y-73043143D02*
X147453048Y-73164095D01*
X147815905Y-73285048D01*
X148057810Y-73285048D01*
X148420667Y-73164095D01*
X148662572Y-72922190D01*
X148783524Y-72680286D01*
X148904476Y-72196476D01*
X148904476Y-71833619D01*
X148783524Y-71349810D01*
X148662572Y-71107905D01*
X148420667Y-70866000D01*
X148057810Y-70745048D01*
X147815905Y-70745048D01*
X147453048Y-70866000D01*
X147332096Y-70986952D01*
X146243524Y-71954571D02*
X145396857Y-71954571D01*
X145034000Y-73285048D02*
X146243524Y-73285048D01*
X146243524Y-70745048D01*
X145034000Y-70745048D01*
X142856858Y-71591714D02*
X142856858Y-73285048D01*
X143461620Y-70624095D02*
X144066381Y-72438381D01*
X142494001Y-72438381D01*
X141042572Y-70745048D02*
X140800667Y-70745048D01*
X140558762Y-70866000D01*
X140437810Y-70986952D01*
X140316857Y-71228857D01*
X140195905Y-71712667D01*
X140195905Y-72317429D01*
X140316857Y-72801238D01*
X140437810Y-73043143D01*
X140558762Y-73164095D01*
X140800667Y-73285048D01*
X141042572Y-73285048D01*
X141284476Y-73164095D01*
X141405429Y-73043143D01*
X141526381Y-72801238D01*
X141647333Y-72317429D01*
X141647333Y-71712667D01*
X141526381Y-71228857D01*
X141405429Y-70986952D01*
X141284476Y-70866000D01*
X141042572Y-70745048D01*
X139107333Y-72317429D02*
X137172095Y-72317429D01*
X136083523Y-72559333D02*
X134874000Y-72559333D01*
X136325428Y-73285048D02*
X135478762Y-70745048D01*
X134632095Y-73285048D01*
X133785428Y-73285048D02*
X133785428Y-70745048D01*
X133180666Y-70745048D01*
X132817809Y-70866000D01*
X132575904Y-71107905D01*
X132454952Y-71349810D01*
X132334000Y-71833619D01*
X132334000Y-72196476D01*
X132454952Y-72680286D01*
X132575904Y-72922190D01*
X132817809Y-73164095D01*
X133180666Y-73285048D01*
X133785428Y-73285048D01*
X129794000Y-73043143D02*
X129914952Y-73164095D01*
X130277809Y-73285048D01*
X130519714Y-73285048D01*
X130882571Y-73164095D01*
X131124476Y-72922190D01*
X131245428Y-72680286D01*
X131366380Y-72196476D01*
X131366380Y-71833619D01*
X131245428Y-71349810D01*
X131124476Y-71107905D01*
X130882571Y-70866000D01*
X130519714Y-70745048D01*
X130277809Y-70745048D01*
X129914952Y-70866000D01*
X129794000Y-70986952D01*
D13*
X125000000Y-120000000D02*
X125000000Y-70000000D01*
X155000000Y-120000000D02*
X125000000Y-120000000D01*
X155000000Y-70000000D02*
X155000000Y-120000000D01*
X125000000Y-70000000D02*
X155000000Y-70000000D01*
X148082000Y-101473000D02*
X145288000Y-101473000D01*
X148336000Y-101727000D02*
X148336000Y-103251000D01*
X145034000Y-101727000D02*
X145034000Y-103251000D01*
X145288000Y-103505000D02*
X148082000Y-103505000D01*
X148336000Y-103251000D02*
G75*
G02X148082000Y-103505000I-254000J0D01*
G01*
X145288000Y-103505000D02*
G75*
G02X145034000Y-103251000I0J254000D01*
G01*
X145034000Y-101727000D02*
G75*
G02X145288000Y-101473000I254000J0D01*
G01*
X148082000Y-101473000D02*
G75*
G02X148336000Y-101727000I0J-254000D01*
G01*
X148082000Y-104140000D02*
X145288000Y-104140000D01*
X148336000Y-104394000D02*
X148336000Y-105918000D01*
X145034000Y-104394000D02*
X145034000Y-105918000D01*
X145288000Y-106172000D02*
X148082000Y-106172000D01*
X148336000Y-105918000D02*
G75*
G02X148082000Y-106172000I-254000J0D01*
G01*
X145288000Y-106172000D02*
G75*
G02X145034000Y-105918000I0J254000D01*
G01*
X145034000Y-104394000D02*
G75*
G02X145288000Y-104140000I254000J0D01*
G01*
X148082000Y-104140000D02*
G75*
G02X148336000Y-104394000I0J-254000D01*
G01*
X148082000Y-106807000D02*
X145288000Y-106807000D01*
X148336000Y-107061000D02*
X148336000Y-108585000D01*
X145034000Y-107061000D02*
X145034000Y-108585000D01*
X145288000Y-108839000D02*
X148082000Y-108839000D01*
X148336000Y-108585000D02*
G75*
G02X148082000Y-108839000I-254000J0D01*
G01*
X145288000Y-108839000D02*
G75*
G02X145034000Y-108585000I0J254000D01*
G01*
X145034000Y-107061000D02*
G75*
G02X145288000Y-106807000I254000J0D01*
G01*
X148082000Y-106807000D02*
G75*
G02X148336000Y-107061000I0J-254000D01*
G01*
X148082000Y-109474000D02*
X145288000Y-109474000D01*
X148336000Y-109728000D02*
X148336000Y-111252000D01*
X145034000Y-109728000D02*
X145034000Y-111252000D01*
X145288000Y-111506000D02*
X148082000Y-111506000D01*
X148336000Y-111252000D02*
G75*
G02X148082000Y-111506000I-254000J0D01*
G01*
X145288000Y-111506000D02*
G75*
G02X145034000Y-111252000I0J254000D01*
G01*
X145034000Y-109728000D02*
G75*
G02X145288000Y-109474000I254000J0D01*
G01*
X148082000Y-109474000D02*
G75*
G02X148336000Y-109728000I0J-254000D01*
G01*
D14*
X136250680Y-103174800D02*
X135917940Y-103906320D01*
X136250680Y-103266240D02*
X135069580Y-104279700D01*
X136136380Y-103129080D02*
X135519160Y-103456740D01*
X135816340Y-102709980D02*
X135206740Y-102816660D01*
X134980680Y-101551740D02*
X135702040Y-101699060D01*
X135221980Y-100858320D02*
X135877300Y-101224080D01*
X136090660Y-99989640D02*
X136509760Y-100576380D01*
X136677400Y-99738180D02*
X136898380Y-100423980D01*
X137942320Y-99722940D02*
X137774680Y-100332540D01*
X138376660Y-99982020D02*
X138201400Y-100340160D01*
X139374880Y-100759260D02*
X138917680Y-101048820D01*
X139550140Y-101239320D02*
X139108180Y-101399340D01*
X139875260Y-102483920D02*
X139169140Y-102356920D01*
X139626340Y-103129080D02*
X139062460Y-102649020D01*
X138960860Y-104028240D02*
X138595100Y-103266240D01*
X134170420Y-101975920D02*
X135638540Y-102062280D01*
X135161020Y-99791520D02*
X136273540Y-100858320D01*
X137426700Y-98734880D02*
X137421620Y-100248720D01*
X139687300Y-99710240D02*
X138625580Y-100817680D01*
X140672820Y-101996240D02*
X139255500Y-101935280D01*
X139636500Y-104200960D02*
X138783060Y-103179880D01*
D15*
X138620500Y-102770940D02*
X138313160Y-103037640D01*
X138950700Y-99857560D02*
X137967720Y-99364800D01*
X136771380Y-103362760D02*
X136893300Y-103078280D01*
X136634220Y-102908100D02*
X136888220Y-103073200D01*
X138135360Y-102905560D02*
X137909300Y-103080820D01*
X138503660Y-102791260D02*
X138244580Y-103129080D01*
X138727180Y-102570280D02*
X138633200Y-102740460D01*
X138727180Y-102570280D02*
X138633200Y-102740460D01*
X138864340Y-101716840D02*
X138732260Y-102539800D01*
X138440160Y-100980240D02*
X138859260Y-101711760D01*
X137568940Y-100550980D02*
X138440160Y-100980240D01*
X136753600Y-100718620D02*
X137568940Y-100558600D01*
X136243060Y-101147880D02*
X136753600Y-100718620D01*
X136009380Y-101820980D02*
X136243060Y-101147880D01*
X136014460Y-102326440D02*
X136014460Y-101808280D01*
X136390380Y-103037640D02*
X136014460Y-102326440D01*
X136568180Y-103159560D02*
X136390380Y-103037640D01*
X139839700Y-99138740D02*
X138955780Y-99860100D01*
X139595860Y-100492560D02*
X140197840Y-99583240D01*
X139600940Y-100487480D02*
X139987020Y-101485700D01*
X141130020Y-101754940D02*
X140014960Y-101508560D01*
X140987780Y-101699060D02*
X140987780Y-102349300D01*
X136611360Y-103101140D02*
X136083040Y-104482900D01*
X136220200Y-104780080D02*
X136606280Y-103799640D01*
X135691880Y-104452420D02*
X136220200Y-104780080D01*
X135008620Y-104785160D02*
X135829040Y-104256840D01*
X135872220Y-104480360D02*
X134995920Y-105100120D01*
X134985760Y-105095040D02*
X134302500Y-104404160D01*
X134589520Y-104320340D02*
X135074660Y-104851200D01*
X134556500Y-102684580D02*
X134937500Y-103665020D01*
X134660640Y-102717600D02*
X133537960Y-102506780D01*
X133522720Y-101528880D02*
X133525260Y-102486460D01*
X133606540Y-102270560D02*
X134713980Y-102494080D01*
X134909560Y-100500180D02*
X134543800Y-101368860D01*
X134294880Y-99618800D02*
X134998460Y-100609400D01*
X134993380Y-98920300D02*
X134299960Y-99611180D01*
X136009380Y-99595940D02*
X134998460Y-98922840D01*
X136695180Y-99209860D02*
X135890000Y-99547680D01*
X136911080Y-98120200D02*
X136685020Y-99291140D01*
X137876280Y-98120200D02*
X136911080Y-98120200D01*
X137886440Y-98127820D02*
X138087100Y-99153980D01*
X138874500Y-99522280D02*
X137970260Y-99143820D01*
X139809220Y-98874580D02*
X138838940Y-99590860D01*
X140495020Y-99590860D02*
X139821920Y-98877120D01*
X140474700Y-99626420D02*
X139880340Y-100479860D01*
X140213080Y-101310440D02*
X139877800Y-100477320D01*
X141282420Y-101508560D02*
X140111480Y-101305360D01*
X141279880Y-101511100D02*
X141279880Y-102496620D01*
X141279880Y-102504240D02*
X140208000Y-102699820D01*
X140517880Y-104411780D02*
X139920980Y-103548180D01*
X139788900Y-105107740D02*
X140510260Y-104414320D01*
X138955780Y-104536240D02*
X139781280Y-105100120D01*
X138943080Y-104546400D02*
X138597640Y-104767380D01*
X138559540Y-104749600D02*
X137909300Y-103080820D01*
D16*
X134993380Y-104940100D02*
X134439660Y-104394000D01*
X135059420Y-103499920D02*
X134439660Y-104386380D01*
X138315700Y-101102160D02*
G75*
G02X138239500Y-102956360I-965200J-889000D01*
G01*
X136364980Y-101274880D02*
G75*
G02X138290300Y-101076760I1061720J-863600D01*
G01*
X136745980Y-103124000D02*
G75*
G02X136375140Y-101259640I746760J1117600D01*
G01*
X136182100Y-104566720D02*
X136756140Y-103126540D01*
X135844280Y-104381300D02*
X136182100Y-104566720D01*
X135008620Y-104947720D02*
X135844280Y-104381300D01*
X134653020Y-102588060D02*
X135059420Y-103499920D01*
X133639560Y-102417880D02*
X134653020Y-102588060D01*
X133639560Y-101582220D02*
X133639560Y-102417880D01*
X134721600Y-101353620D02*
X133639560Y-101582220D01*
X135061960Y-100416360D02*
X134721600Y-101353620D01*
X134444740Y-99626420D02*
X135061960Y-100416360D01*
X134998460Y-99077780D02*
X134444740Y-99623880D01*
X135902700Y-99710240D02*
X134998460Y-99075800D01*
X136817100Y-99265740D02*
X135915400Y-99715320D01*
X137030460Y-98247200D02*
X136817100Y-99265740D01*
X137797540Y-98226880D02*
X137012680Y-98226880D01*
X137789920Y-98239580D02*
X137995660Y-99253040D01*
X138894820Y-99679760D02*
X138049000Y-99273360D01*
X139783820Y-99037140D02*
X138955780Y-99689920D01*
D17*
X140332460Y-99595940D02*
X139832080Y-99062540D01*
D16*
X140322300Y-99618800D02*
X139766040Y-100469700D01*
X140093700Y-101386640D02*
X139745720Y-100520500D01*
X141142720Y-101602540D02*
X140124180Y-101422200D01*
D17*
X141130020Y-101615240D02*
X141135100Y-102402640D01*
D16*
X141140180Y-102392480D02*
X140190220Y-102610920D01*
X140162280Y-102633780D02*
X139804140Y-103517700D01*
X140337540Y-104394000D02*
X139804140Y-103560880D01*
D17*
X140352780Y-104394000D02*
X139788900Y-104932480D01*
D18*
X139776200Y-104932480D02*
X138996420Y-104401620D01*
D16*
X138986260Y-104383840D02*
X138668760Y-104589580D01*
D19*
X138640820Y-104569260D02*
X138089640Y-103146860D01*
D20*
X133256020Y-114762280D02*
X135689340Y-112341660D01*
D13*
X136219037Y-113598960D02*
G75*
G03X136219037Y-113598960I-1802237J0D01*
G01*
D21*
X134493000Y-94869000D02*
G75*
G03X134493000Y-94869000I-127000J0D01*
G01*
D13*
X134239000Y-91567000D02*
G75*
G02X136525000Y-91567000I1143000J-1143000D01*
G01*
X135509000Y-90805000D02*
X135509000Y-90932000D01*
X135509000Y-90932000D02*
X135128000Y-90932000D01*
X135128000Y-90932000D02*
X135128000Y-90805000D01*
X135128000Y-90805000D02*
X135509000Y-90805000D01*
X135382000Y-92329000D02*
X134747000Y-92329000D01*
X135509000Y-92202000D02*
X134620000Y-92202000D01*
X134620000Y-92202000D02*
X134620000Y-92583000D01*
X134620000Y-92583000D02*
X135509000Y-92583000D01*
X135509000Y-92583000D02*
X135509000Y-92202000D01*
X134112000Y-92202000D02*
X134112000Y-91821000D01*
X134112000Y-91821000D02*
X133985000Y-91821000D01*
X133985000Y-91821000D02*
X133985000Y-92202000D01*
X134112000Y-91821000D02*
X134112000Y-91948000D01*
X134112000Y-91694000D02*
X133985000Y-92075000D01*
X134112000Y-91821000D02*
X134112000Y-91948000D01*
X134239000Y-91694000D02*
X134239000Y-92202000D01*
X134239000Y-92202000D02*
X133858000Y-92202000D01*
X133858000Y-92202000D02*
X133858000Y-91694000D01*
X136271000Y-91567000D02*
X136271000Y-91059000D01*
X136271000Y-91059000D02*
X136144000Y-91059000D01*
X136144000Y-91059000D02*
X136144000Y-91567000D01*
X134767609Y-94869000D02*
G75*
G03X134767609Y-94869000I-401609J0D01*
G01*
X134366000Y-94361000D02*
X134239000Y-92329000D01*
X136271000Y-94869000D02*
X136271000Y-95250000D01*
X136271000Y-95250000D02*
X135763000Y-95250000D01*
X135763000Y-95250000D02*
X135763000Y-94996000D01*
X136779000Y-91694000D02*
X133858000Y-91694000D01*
X136271000Y-94869000D02*
X136525000Y-91821000D01*
X136271000Y-94869000D02*
X134874000Y-94869000D01*
X137287000Y-95250000D02*
X133223000Y-91313000D01*
X137414000Y-91186000D02*
X133223000Y-95377000D01*
D15*
X137569200Y-96622400D02*
X133149600Y-96622400D01*
X133149600Y-96520800D02*
X137518400Y-96520800D01*
X137569200Y-96317600D02*
X133098800Y-96317600D01*
X137569200Y-96165200D02*
X133149600Y-96165200D01*
X133098800Y-96419200D02*
X137518400Y-96419200D01*
X133098800Y-96266800D02*
X137518400Y-96266800D01*
X137569200Y-96114400D02*
X133098800Y-96114400D01*
X133098800Y-96012800D02*
X137518400Y-96012800D01*
X133048000Y-96724000D02*
X137620000Y-96724000D01*
X137620000Y-96724000D02*
X137620000Y-95962000D01*
X137620000Y-95962000D02*
X133048000Y-95962000D01*
X133048000Y-95962000D02*
X133048000Y-96724000D01*
D10*
X136537700Y-74371200D02*
X135166100Y-74371200D01*
X135166100Y-74371200D02*
X135115300Y-74371200D01*
X135115300Y-74371200D02*
X133858000Y-75615800D01*
X138061700Y-74485500D02*
X137960100Y-74485500D01*
X137909300Y-74422000D02*
X137909300Y-74409300D01*
X137909300Y-74409300D02*
X139204700Y-74409300D01*
X139204700Y-74409300D02*
X139230100Y-74409300D01*
X139230100Y-74409300D02*
X139852400Y-74904600D01*
X137909300Y-77431900D02*
X137909300Y-74422000D01*
X141566900Y-74472800D02*
X141643100Y-74472800D01*
X141719300Y-74409300D02*
X140474700Y-74409300D01*
X140474700Y-74409300D02*
X139890500Y-74891900D01*
X141719300Y-77406500D02*
X141719300Y-74422000D01*
X142455900Y-77000100D02*
X142367000Y-77000100D01*
X142798800Y-77000100D02*
X142862300Y-77000100D01*
X142938500Y-77063600D02*
X142328900Y-77063600D01*
X142328900Y-77063600D02*
X142303500Y-77063600D01*
X142303500Y-77063600D02*
X142303500Y-75044300D01*
X142938500Y-75044300D02*
X142938500Y-77063600D01*
X144437100Y-74434700D02*
X144322800Y-74434700D01*
X144564100Y-74358500D02*
X144259300Y-74358500D01*
X144259300Y-74358500D02*
X144259300Y-77393800D01*
X144741900Y-74447400D02*
X144805400Y-74434700D01*
X144856200Y-74358500D02*
X144868900Y-74358500D01*
X144868900Y-74358500D02*
X144881600Y-74358500D01*
X144881600Y-74358500D02*
X144881600Y-77508100D01*
X144576800Y-74358500D02*
X144856200Y-74358500D01*
D22*
X144576800Y-77431900D02*
X144576800Y-74701400D01*
X138239500Y-74714100D02*
X138239500Y-77317600D01*
X146354800Y-74701400D02*
X147358100Y-74701400D01*
X145732500Y-75311000D02*
X145732500Y-77241400D01*
X147955000Y-75349100D02*
X147955000Y-75590400D01*
X147955000Y-77317600D02*
X147370800Y-77889100D01*
X147942300Y-77330300D02*
X147942300Y-76568300D01*
X147383500Y-77889100D02*
X146342100Y-77889100D01*
D18*
X135614659Y-76276200D02*
G75*
G03X135614659Y-76276200I-359659J0D01*
G01*
D22*
X135763000Y-76276200D02*
X136982200Y-76276200D01*
D18*
X132680735Y-74536300D02*
G75*
G03X132680735Y-74536300I-359435J0D01*
G01*
D22*
X132689600Y-74891900D02*
X133553200Y-75785600D01*
D23*
X134112000Y-75882500D02*
X133553200Y-75882500D01*
D22*
X135229600Y-74701400D02*
X134137400Y-75768200D01*
X136451500Y-74701400D02*
X135229600Y-74701400D01*
X136982200Y-75184000D02*
X136499600Y-74676000D01*
X136982200Y-75209400D02*
X136982200Y-77444600D01*
X136982200Y-77444600D02*
X136550400Y-77876400D01*
X136550400Y-77876400D02*
X135229600Y-77876400D01*
X135229600Y-77876400D02*
X134086600Y-76758800D01*
D23*
X134086600Y-76657200D02*
X133553200Y-76657200D01*
D22*
X132740400Y-77571600D02*
X133578600Y-76758800D01*
D18*
X132739666Y-77927200D02*
G75*
G03X132739666Y-77927200I-329466J0D01*
G01*
X138602729Y-77838300D02*
G75*
G03X138602729Y-77838300I-363229J0D01*
G01*
D22*
X139141200Y-74726800D02*
X138252200Y-74726800D01*
D18*
X140223318Y-76555600D02*
G75*
G03X140223318Y-76555600I-370918J0D01*
G01*
D22*
X139776200Y-75234800D02*
X139141200Y-74726800D01*
X139852400Y-76022200D02*
X139852400Y-75311000D01*
X140563600Y-74726800D02*
X139954000Y-75234800D01*
X141401800Y-74726800D02*
X140563600Y-74726800D01*
X141401800Y-77317600D02*
X141401800Y-74726800D01*
D18*
X141748759Y-77825600D02*
G75*
G03X141748759Y-77825600I-359659J0D01*
G01*
X142981818Y-74625200D02*
G75*
G03X142981818Y-74625200I-373518J0D01*
G01*
D22*
X142621000Y-75158600D02*
X142621000Y-76758800D01*
D18*
X142987324Y-77851000D02*
G75*
G03X142987324Y-77851000I-366324J0D01*
G01*
D22*
X143133800Y-77876400D02*
X144119600Y-77876400D01*
X144119600Y-77876400D02*
X144576800Y-77419200D01*
X145745200Y-77279500D02*
X146304000Y-77863700D01*
X146354800Y-74714100D02*
X145719800Y-75323700D01*
X147955000Y-75298300D02*
X147447000Y-74790300D01*
D18*
X148279747Y-76073000D02*
G75*
G03X148279747Y-76073000I-337447J0D01*
G01*
D13*
X136017000Y-81534000D02*
X139573000Y-88646000D01*
X139573000Y-88646000D02*
X132461000Y-88646000D01*
X132461000Y-88646000D02*
X133794500Y-85979000D01*
X133794500Y-85979000D02*
X134239000Y-85090000D01*
X134239000Y-85090000D02*
X136017000Y-81534000D01*
X137795000Y-85153500D02*
X132461000Y-88646000D01*
X135420100Y-85090000D02*
X134239000Y-85090000D01*
X133794500Y-85979000D02*
X134112000Y-85979000D01*
X136779000Y-87566500D02*
X136626600Y-87566500D01*
X137731500Y-86169500D02*
X137731500Y-87249000D01*
X137287000Y-87566500D02*
X137287000Y-87439500D01*
X137350500Y-87376000D02*
X137350500Y-86360000D01*
X137350500Y-87376000D02*
X137414000Y-87376000D01*
X135636721Y-85026678D02*
G75*
G02X137223500Y-85534500I466639J-1274902D01*
G01*
X135635915Y-85028114D02*
G75*
G02X135420100Y-85090000I-182795J230214D01*
G01*
X134111301Y-85979474D02*
G75*
G02X134620000Y-86169500I64199J-604046D01*
G01*
X135442461Y-86615576D02*
G75*
G02X134620000Y-86169500I147819J1253796D01*
G01*
X135954708Y-86361166D02*
G75*
G02X136906000Y-87122000I-285688J-1332334D01*
G01*
X136016915Y-86805965D02*
G75*
G02X136588500Y-87566500I-284395J-808795D01*
G01*
X135577275Y-86678493D02*
G75*
G02X136017000Y-86804500I-825195J-3709947D01*
G01*
X136905967Y-87439600D02*
G75*
G02X136779000Y-87566500I-190467J63600D01*
G01*
X136905068Y-87122674D02*
G75*
G02X136906000Y-87439500I-316568J-159346D01*
G01*
X137348935Y-86361845D02*
G75*
G02X136652000Y-85915500I153965J1007685D01*
G01*
X137539549Y-85852142D02*
G75*
G02X137223500Y-85534500I478971J792622D01*
G01*
X137542048Y-85853575D02*
G75*
G02X137731500Y-86169500I-168688J-315925D01*
G01*
X137731500Y-87249000D02*
G75*
G02X137350500Y-87630000I-381000J0D01*
G01*
X137348071Y-87632545D02*
G75*
G02X137287000Y-87566500I2429J63505D01*
G01*
X137287000Y-87439500D02*
G75*
G02X137350500Y-87376000I63500J0D01*
G01*
X137414000Y-87376000D02*
G75*
G02X137541000Y-87503000I0J-127000D01*
G01*
X144780000Y-95123000D02*
X144780000Y-83312000D01*
X147828000Y-83312000D02*
X147828000Y-95123000D01*
X143797020Y-95978980D02*
X143743680Y-96032320D01*
X143743680Y-96751140D02*
X144018000Y-97028000D01*
X138811000Y-90170000D02*
X140926820Y-91036140D01*
X143314420Y-93019880D02*
X143349980Y-93055440D01*
X144018000Y-94924880D02*
X144018000Y-95440500D01*
X138811000Y-90170000D02*
X139430760Y-91031060D01*
X139768580Y-92748100D02*
X139573000Y-94896940D01*
X141089380Y-96946720D02*
X141688820Y-97094040D01*
X142367000Y-97152460D02*
X142748000Y-97152460D01*
X143972280Y-97050860D02*
X144018000Y-97028000D01*
X145288000Y-96393000D02*
X145102580Y-96578420D01*
X140462000Y-91564460D02*
X140809980Y-91846400D01*
X141561820Y-93873320D02*
X141622780Y-94183200D01*
X142892780Y-96738440D02*
X143080740Y-96908620D01*
X142748000Y-97152460D02*
X142745460Y-97149920D01*
X141673580Y-96093280D02*
X141668500Y-96085660D01*
X141165580Y-94818200D02*
X141091920Y-94300040D01*
X140876020Y-92951300D02*
X140462000Y-91564460D01*
X145415000Y-96393000D02*
X144653000Y-96901000D01*
X144190720Y-97028000D02*
X144145000Y-97028000D01*
X145288000Y-96266000D02*
X144797780Y-96756220D01*
X144526000Y-97028000D02*
X144632680Y-97132140D01*
X144660620Y-97782380D02*
X144526000Y-97917000D01*
X144526000Y-97917000D02*
X144106900Y-97619820D01*
X142905480Y-97736660D02*
X142811500Y-97790000D01*
X142166340Y-98511360D02*
X141986000Y-98933000D01*
X141986000Y-98933000D02*
X141605000Y-99949000D01*
X141605000Y-99949000D02*
X142143480Y-99814380D01*
X144205960Y-99634040D02*
X144228820Y-99611180D01*
X144526000Y-98831400D02*
X144526000Y-98475800D01*
X144526000Y-97929700D02*
X144526000Y-97917000D01*
X143334740Y-99009200D02*
X143725900Y-98983800D01*
X139319000Y-90551000D02*
X139956540Y-91564460D01*
D11*
X139956540Y-91564460D02*
X139956540Y-92710000D01*
X139956540Y-92710000D02*
X139827000Y-93726000D01*
X139827000Y-93726000D02*
X139827000Y-95377000D01*
X139827000Y-95377000D02*
X140208000Y-96012000D01*
X140208000Y-96012000D02*
X140716000Y-96520000D01*
X140716000Y-96520000D02*
X141224000Y-96774000D01*
X141224000Y-96774000D02*
X142240000Y-96901000D01*
X142240000Y-96901000D02*
X141605000Y-96393000D01*
X141605000Y-96393000D02*
X141224000Y-95758000D01*
X141224000Y-95758000D02*
X140716000Y-96012000D01*
X140716000Y-96012000D02*
X141224000Y-96393000D01*
X141224000Y-95631000D02*
X140843000Y-94996000D01*
X140843000Y-94996000D02*
X140843000Y-94488000D01*
X140843000Y-94488000D02*
X140843000Y-94361000D01*
X140843000Y-94361000D02*
X140716000Y-93218000D01*
X140716000Y-93218000D02*
X140335000Y-91948000D01*
X140335000Y-91948000D02*
X140208000Y-91440000D01*
X140208000Y-91440000D02*
X140208000Y-96012000D01*
X140208000Y-96012000D02*
X140462000Y-96012000D01*
X140716000Y-96012000D02*
X140462000Y-96012000D01*
X140462000Y-96012000D02*
X140385800Y-91059000D01*
X140843000Y-96139000D02*
X140843000Y-94488000D01*
X139319000Y-90551000D02*
X140208000Y-91059000D01*
X140208000Y-91059000D02*
X140716000Y-91186000D01*
X140716000Y-91186000D02*
X141224000Y-91564460D01*
X141224000Y-91564460D02*
X140843000Y-91564460D01*
X140843000Y-91564460D02*
X139956540Y-91186000D01*
X141351000Y-91694000D02*
X141859000Y-92075000D01*
X141859000Y-92075000D02*
X142240000Y-92329000D01*
X142240000Y-92329000D02*
X143129000Y-93218000D01*
X143129000Y-93218000D02*
X143510000Y-93726000D01*
X143510000Y-93726000D02*
X143764000Y-94615000D01*
X143764000Y-94615000D02*
X143764000Y-95504000D01*
X143764000Y-95504000D02*
X143256000Y-96266000D01*
X143256000Y-96266000D02*
X143383000Y-96647000D01*
X143383000Y-96647000D02*
X143637000Y-96901000D01*
X143637000Y-96901000D02*
X143129000Y-96647000D01*
X143129000Y-96647000D02*
X142621000Y-96139000D01*
X142621000Y-96139000D02*
X142214600Y-95453200D01*
X142214600Y-95453200D02*
X141732000Y-94056200D01*
X141732000Y-94056200D02*
X141732000Y-93446600D01*
X141732000Y-93446600D02*
X141478000Y-92710000D01*
X141478000Y-92710000D02*
X141097000Y-91948000D01*
X141478000Y-92075000D02*
X142113000Y-92837000D01*
X142113000Y-92837000D02*
X141986000Y-92964000D01*
X141986000Y-92964000D02*
X141986000Y-93091000D01*
X141986000Y-93091000D02*
X142113000Y-94234000D01*
X142113000Y-94234000D02*
X142367000Y-95250000D01*
X142367000Y-95250000D02*
X142875000Y-95885000D01*
X142875000Y-95885000D02*
X143002000Y-96012000D01*
X143002000Y-96012000D02*
X143256000Y-95885000D01*
X143256000Y-95885000D02*
X143256000Y-95631000D01*
X143256000Y-95631000D02*
X143383000Y-95250000D01*
X143383000Y-95250000D02*
X143383000Y-94615000D01*
X143383000Y-94615000D02*
X143256000Y-94234000D01*
X143256000Y-94234000D02*
X143129000Y-93726000D01*
X143129000Y-93726000D02*
X142621000Y-93091000D01*
X142621000Y-93091000D02*
X142494000Y-92964000D01*
X142494000Y-92964000D02*
X142367000Y-93091000D01*
X142367000Y-93091000D02*
X142367000Y-93599000D01*
X142367000Y-93599000D02*
X142621000Y-94615000D01*
X142621000Y-94615000D02*
X142621000Y-94869000D01*
X142621000Y-94869000D02*
X142875000Y-95377000D01*
X142875000Y-95377000D02*
X143002000Y-95377000D01*
X143002000Y-95377000D02*
X143129000Y-95250000D01*
X143129000Y-95250000D02*
X143002000Y-94869000D01*
X143002000Y-94869000D02*
X142748000Y-93599000D01*
D13*
X144401540Y-98219260D02*
X144429480Y-98191320D01*
X143332200Y-98602800D02*
X143324580Y-98602800D01*
X143786860Y-97663000D02*
X143764000Y-97663000D01*
X143764000Y-97663000D02*
X143510000Y-97663000D01*
X143510000Y-97663000D02*
X143510000Y-97790000D01*
X143510000Y-97790000D02*
X143510000Y-97917000D01*
X143510000Y-97917000D02*
X144145000Y-97917000D01*
X143510000Y-97790000D02*
X143637000Y-97790000D01*
X143637000Y-97790000D02*
X144018000Y-97790000D01*
X144018000Y-97790000D02*
X144145000Y-97790000D01*
X144145000Y-97790000D02*
X144272000Y-97790000D01*
X143510000Y-97917000D02*
X143510000Y-98298000D01*
X143510000Y-98298000D02*
X143510000Y-98552000D01*
X143510000Y-98552000D02*
X144399000Y-98044000D01*
X143510000Y-98298000D02*
X144018000Y-98298000D01*
X143637000Y-97790000D02*
X143637000Y-98425000D01*
X143764000Y-97663000D02*
X143764000Y-98425000D01*
X143891000Y-97663000D02*
X143891000Y-98425000D01*
X144018000Y-97790000D02*
X144018000Y-98425000D01*
X144145000Y-97790000D02*
X144145000Y-98298000D01*
X143383000Y-98552000D02*
X143383000Y-97663000D01*
X143256000Y-98552000D02*
X143256000Y-97663000D01*
X143129000Y-98552000D02*
X143129000Y-97790000D01*
X143002000Y-98552000D02*
X143002000Y-97790000D01*
X142875000Y-98679000D02*
X142875000Y-97790000D01*
X142748000Y-98679000D02*
X142748000Y-97917000D01*
X142621000Y-98806000D02*
X142621000Y-98044000D01*
X142494000Y-98806000D02*
X142494000Y-98171000D01*
X142367000Y-98933000D02*
X142367000Y-98425000D01*
X142240000Y-99695000D02*
X142240000Y-99568000D01*
X142240000Y-99568000D02*
X142240000Y-99441000D01*
X142240000Y-99441000D02*
X142240000Y-98552000D01*
X142113000Y-98933000D02*
X142113000Y-99695000D01*
X141986000Y-99187000D02*
X141986000Y-99822000D01*
X141859000Y-99314000D02*
X141859000Y-99822000D01*
X142240000Y-99441000D02*
X142748000Y-99441000D01*
X142240000Y-99568000D02*
X142748000Y-99568000D01*
X142748000Y-99187000D02*
X142748000Y-99695000D01*
X142875000Y-99187000D02*
X142875000Y-99695000D01*
X143002000Y-99060000D02*
X143002000Y-99695000D01*
X143129000Y-99060000D02*
X143129000Y-99822000D01*
X143256000Y-99060000D02*
X143256000Y-99822000D01*
X143383000Y-99060000D02*
X143383000Y-99822000D01*
X143510000Y-99060000D02*
X143510000Y-99822000D01*
X143637000Y-99060000D02*
X143637000Y-99822000D01*
X143764000Y-99060000D02*
X143764000Y-99822000D01*
X143891000Y-98983800D02*
X143891000Y-99822000D01*
X144018000Y-98933000D02*
X144018000Y-99695000D01*
X144145000Y-98933000D02*
X144145000Y-99568000D01*
X144272000Y-98806000D02*
X144272000Y-99441000D01*
X144399000Y-98679000D02*
X144399000Y-99187000D01*
X146304000Y-96647000D02*
G75*
G02X144780000Y-95123000I0J1524000D01*
G01*
X144780000Y-83312000D02*
G75*
G02X146304000Y-81788000I1524000J0D01*
G01*
X146304000Y-81788000D02*
G75*
G02X147828000Y-83312000I0J-1524000D01*
G01*
X147828000Y-95123000D02*
G75*
G02X146304000Y-96647000I-1524000J0D01*
G01*
X144020066Y-95440500D02*
G75*
G02X143797020Y-95978980I-761526J0D01*
G01*
X143741140Y-96751140D02*
G75*
G02X143743680Y-96032320I360680J358140D01*
G01*
X140932447Y-91038536D02*
G75*
G02X143314420Y-93019880I-4925607J-8344044D01*
G01*
X143352013Y-93059067D02*
G75*
G02X144018000Y-94924880I-1924813J-1738813D01*
G01*
X139428522Y-91033048D02*
G75*
G02X139768580Y-92748100I-1900222J-1268012D01*
G01*
X141085585Y-96947264D02*
G75*
G02X139573000Y-94896940I760715J2144304D01*
G01*
X142366243Y-97154240D02*
G75*
G02X141688820Y-97094040I-70363J3049780D01*
G01*
X145103559Y-96580451D02*
G75*
G02X144018000Y-97028000I-1083019J1086611D01*
G01*
X140811778Y-91846459D02*
G75*
G02X141561820Y-93873320I-3997218J-2631381D01*
G01*
X142892156Y-96737527D02*
G75*
G02X141622780Y-94183200I4148444J3654147D01*
G01*
X144018069Y-97028845D02*
G75*
G02X143080740Y-96908620I-378529J762845D01*
G01*
X142743765Y-97148359D02*
G75*
G02X141673580Y-96093280I2722035J3831299D01*
G01*
X141665934Y-96081870D02*
G75*
G02X141165580Y-94818200I3545866J2134890D01*
G01*
X140876186Y-92957621D02*
G75*
G02X141091920Y-94300040I-6992786J-1812319D01*
G01*
X145415280Y-96522022D02*
G75*
G02X144190720Y-97028000I-1224560J1228842D01*
G01*
X144797710Y-96759742D02*
G75*
G02X144145000Y-97028000I-650170J653762D01*
G01*
X144631954Y-97132866D02*
G75*
G02X144780000Y-97490280I-357414J-357414D01*
G01*
X144781612Y-97490280D02*
G75*
G02X144660620Y-97782380I-413092J0D01*
G01*
X143662901Y-97534126D02*
G75*
G02X144106900Y-97619820I-501J-1195674D01*
G01*
X142907321Y-97736206D02*
G75*
G02X143662400Y-97536000I755079J-1323794D01*
G01*
X142167511Y-98512000D02*
G75*
G02X142811500Y-97790000I1400909J-601340D01*
G01*
X142146136Y-99813852D02*
G75*
G02X143080740Y-99877880I368184J-1478808D01*
G01*
X143449487Y-99948717D02*
G75*
G02X143080740Y-99877880I-447J992857D01*
G01*
X144206974Y-99635054D02*
G75*
G02X143449040Y-99949000I-757934J757934D01*
G01*
X144502453Y-99031503D02*
G75*
G02X144228820Y-99611180I-1185493J205183D01*
G01*
X144527303Y-98830073D02*
G75*
G02X144503140Y-99029520I-824263J-1327D01*
G01*
X142387066Y-99363205D02*
G75*
G02X143377920Y-99009200I1061974J-1408755D01*
G01*
X144521613Y-98481660D02*
G75*
G02X143725900Y-98983800I-1003993J709440D01*
G01*
X144527791Y-97915212D02*
G75*
G02X144401540Y-98219260I-431051J752D01*
G01*
X144429046Y-98192660D02*
G75*
G02X143332200Y-98602800I-1043506J1118940D01*
G01*
X142293180Y-99109980D02*
G75*
G02X143324580Y-98602800I1127920J-991420D01*
G01*
X143788371Y-97663444D02*
G75*
G02X144399000Y-97917000I-1511J-865696D01*
G01*
D20*
X144652838Y-102558810D02*
X144538552Y-102596905D01*
X144348076Y-102596905D01*
X144271886Y-102558810D01*
X144233790Y-102520714D01*
X144195695Y-102444524D01*
X144195695Y-102368333D01*
X144233790Y-102292143D01*
X144271886Y-102254048D01*
X144348076Y-102215952D01*
X144500457Y-102177857D01*
X144576648Y-102139762D01*
X144614743Y-102101667D01*
X144652838Y-102025476D01*
X144652838Y-101949286D01*
X144614743Y-101873095D01*
X144576648Y-101835000D01*
X144500457Y-101796905D01*
X144309981Y-101796905D01*
X144195695Y-101835000D01*
X143852838Y-102177857D02*
X143586171Y-102177857D01*
X143471885Y-102596905D02*
X143852838Y-102596905D01*
X143852838Y-101796905D01*
X143471885Y-101796905D01*
X142748075Y-102596905D02*
X143129028Y-102596905D01*
X143129028Y-101796905D01*
X142062361Y-102596905D02*
X142519504Y-102596905D01*
X142290933Y-102596905D02*
X142290933Y-101796905D01*
X142367123Y-101911190D01*
X142443314Y-101987381D01*
X142519504Y-102025476D01*
X144652838Y-105479810D02*
X144538552Y-105517905D01*
X144348076Y-105517905D01*
X144271886Y-105479810D01*
X144233790Y-105441714D01*
X144195695Y-105365524D01*
X144195695Y-105289333D01*
X144233790Y-105213143D01*
X144271886Y-105175048D01*
X144348076Y-105136952D01*
X144500457Y-105098857D01*
X144576648Y-105060762D01*
X144614743Y-105022667D01*
X144652838Y-104946476D01*
X144652838Y-104870286D01*
X144614743Y-104794095D01*
X144576648Y-104756000D01*
X144500457Y-104717905D01*
X144309981Y-104717905D01*
X144195695Y-104756000D01*
X143852838Y-105098857D02*
X143586171Y-105098857D01*
X143471885Y-105517905D02*
X143852838Y-105517905D01*
X143852838Y-104717905D01*
X143471885Y-104717905D01*
X142748075Y-105517905D02*
X143129028Y-105517905D01*
X143129028Y-104717905D01*
X142519504Y-104794095D02*
X142481409Y-104756000D01*
X142405218Y-104717905D01*
X142214742Y-104717905D01*
X142138552Y-104756000D01*
X142100456Y-104794095D01*
X142062361Y-104870286D01*
X142062361Y-104946476D01*
X142100456Y-105060762D01*
X142557599Y-105517905D01*
X142062361Y-105517905D01*
X144652838Y-108121410D02*
X144538552Y-108159505D01*
X144348076Y-108159505D01*
X144271886Y-108121410D01*
X144233790Y-108083314D01*
X144195695Y-108007124D01*
X144195695Y-107930933D01*
X144233790Y-107854743D01*
X144271886Y-107816648D01*
X144348076Y-107778552D01*
X144500457Y-107740457D01*
X144576648Y-107702362D01*
X144614743Y-107664267D01*
X144652838Y-107588076D01*
X144652838Y-107511886D01*
X144614743Y-107435695D01*
X144576648Y-107397600D01*
X144500457Y-107359505D01*
X144309981Y-107359505D01*
X144195695Y-107397600D01*
X143852838Y-107740457D02*
X143586171Y-107740457D01*
X143471885Y-108159505D02*
X143852838Y-108159505D01*
X143852838Y-107359505D01*
X143471885Y-107359505D01*
X142748075Y-108159505D02*
X143129028Y-108159505D01*
X143129028Y-107359505D01*
X142557599Y-107359505D02*
X142062361Y-107359505D01*
X142329028Y-107664267D01*
X142214742Y-107664267D01*
X142138552Y-107702362D01*
X142100456Y-107740457D01*
X142062361Y-107816648D01*
X142062361Y-108007124D01*
X142100456Y-108083314D01*
X142138552Y-108121410D01*
X142214742Y-108159505D01*
X142443314Y-108159505D01*
X142519504Y-108121410D01*
X142557599Y-108083314D01*
X144652838Y-112236210D02*
X144538552Y-112274305D01*
X144348076Y-112274305D01*
X144271886Y-112236210D01*
X144233790Y-112198114D01*
X144195695Y-112121924D01*
X144195695Y-112045733D01*
X144233790Y-111969543D01*
X144271886Y-111931448D01*
X144348076Y-111893352D01*
X144500457Y-111855257D01*
X144576648Y-111817162D01*
X144614743Y-111779067D01*
X144652838Y-111702876D01*
X144652838Y-111626686D01*
X144614743Y-111550495D01*
X144576648Y-111512400D01*
X144500457Y-111474305D01*
X144309981Y-111474305D01*
X144195695Y-111512400D01*
X143852838Y-111855257D02*
X143586171Y-111855257D01*
X143471885Y-112274305D02*
X143852838Y-112274305D01*
X143852838Y-111474305D01*
X143471885Y-111474305D01*
X142748075Y-112274305D02*
X143129028Y-112274305D01*
X143129028Y-111474305D01*
X142138552Y-111740971D02*
X142138552Y-112274305D01*
X142329028Y-111436210D02*
X142519504Y-112007638D01*
X142024266Y-112007638D01*
D24*
X138044798Y-106827581D02*
X138044798Y-105827581D01*
X137616226Y-106827581D02*
X137616226Y-106303771D01*
X137663845Y-106208533D01*
X137759083Y-106160914D01*
X137901941Y-106160914D01*
X137997179Y-106208533D01*
X138044798Y-106256152D01*
X136711464Y-106827581D02*
X136711464Y-106303771D01*
X136759083Y-106208533D01*
X136854321Y-106160914D01*
X137044798Y-106160914D01*
X137140036Y-106208533D01*
X136711464Y-106779962D02*
X136806702Y-106827581D01*
X137044798Y-106827581D01*
X137140036Y-106779962D01*
X137187655Y-106684724D01*
X137187655Y-106589486D01*
X137140036Y-106494248D01*
X137044798Y-106446629D01*
X136806702Y-106446629D01*
X136711464Y-106399010D01*
X136235274Y-106827581D02*
X136235274Y-106160914D01*
X136235274Y-106351390D02*
X136187655Y-106256152D01*
X136140036Y-106208533D01*
X136044798Y-106160914D01*
X135949559Y-106160914D01*
X135187654Y-106827581D02*
X135187654Y-105827581D01*
X135187654Y-106779962D02*
X135282892Y-106827581D01*
X135473369Y-106827581D01*
X135568607Y-106779962D01*
X135616226Y-106732343D01*
X135663845Y-106637105D01*
X135663845Y-106351390D01*
X135616226Y-106256152D01*
X135568607Y-106208533D01*
X135473369Y-106160914D01*
X135282892Y-106160914D01*
X135187654Y-106208533D01*
X134806702Y-106160914D02*
X134616226Y-106827581D01*
X134425749Y-106351390D01*
X134235273Y-106827581D01*
X134044797Y-106160914D01*
X133235273Y-106827581D02*
X133235273Y-106303771D01*
X133282892Y-106208533D01*
X133378130Y-106160914D01*
X133568607Y-106160914D01*
X133663845Y-106208533D01*
X133235273Y-106779962D02*
X133330511Y-106827581D01*
X133568607Y-106827581D01*
X133663845Y-106779962D01*
X133711464Y-106684724D01*
X133711464Y-106589486D01*
X133663845Y-106494248D01*
X133568607Y-106446629D01*
X133330511Y-106446629D01*
X133235273Y-106399010D01*
X132759083Y-106827581D02*
X132759083Y-106160914D01*
X132759083Y-106351390D02*
X132711464Y-106256152D01*
X132663845Y-106208533D01*
X132568607Y-106160914D01*
X132473368Y-106160914D01*
X131759082Y-106779962D02*
X131854320Y-106827581D01*
X132044797Y-106827581D01*
X132140035Y-106779962D01*
X132187654Y-106684724D01*
X132187654Y-106303771D01*
X132140035Y-106208533D01*
X132044797Y-106160914D01*
X131854320Y-106160914D01*
X131759082Y-106208533D01*
X131711463Y-106303771D01*
X131711463Y-106399010D01*
X132187654Y-106494248D01*
D13*
X142360297Y-106781379D02*
X142465059Y-106728998D01*
X142517440Y-106676617D01*
X142569821Y-106571855D01*
X142569821Y-106257570D01*
X142517440Y-106152808D01*
X142465059Y-106100427D01*
X142360297Y-106048046D01*
X142203155Y-106048046D01*
X142098393Y-106100427D01*
X142046012Y-106152808D01*
X141993631Y-106257570D01*
X141993631Y-106571855D01*
X142046012Y-106676617D01*
X142098393Y-106728998D01*
X142203155Y-106781379D01*
X142360297Y-106781379D01*
X141522202Y-106048046D02*
X141522202Y-107148046D01*
X141522202Y-106100427D02*
X141417440Y-106048046D01*
X141207917Y-106048046D01*
X141103155Y-106100427D01*
X141050774Y-106152808D01*
X140998393Y-106257570D01*
X140998393Y-106571855D01*
X141050774Y-106676617D01*
X141103155Y-106728998D01*
X141207917Y-106781379D01*
X141417440Y-106781379D01*
X141522202Y-106728998D01*
X140107917Y-106728998D02*
X140212679Y-106781379D01*
X140422202Y-106781379D01*
X140526964Y-106728998D01*
X140579345Y-106624236D01*
X140579345Y-106205189D01*
X140526964Y-106100427D01*
X140422202Y-106048046D01*
X140212679Y-106048046D01*
X140107917Y-106100427D01*
X140055536Y-106205189D01*
X140055536Y-106309950D01*
X140579345Y-106414712D01*
X139584107Y-106048046D02*
X139584107Y-106781379D01*
X139584107Y-106152808D02*
X139531726Y-106100427D01*
X139426964Y-106048046D01*
X139269822Y-106048046D01*
X139165060Y-106100427D01*
X139112679Y-106205189D01*
X139112679Y-106781379D01*
D15*
D13*
X135605068Y-114388328D02*
X135605068Y-112688328D01*
X135033640Y-112688328D01*
X134890782Y-112769280D01*
X134819354Y-112850232D01*
X134747925Y-113012137D01*
X134747925Y-113254994D01*
X134819354Y-113416899D01*
X134890782Y-113497851D01*
X135033640Y-113578804D01*
X135605068Y-113578804D01*
X134105068Y-114388328D02*
X134105068Y-112688328D01*
X134105068Y-113335947D02*
X133962211Y-113254994D01*
X133676497Y-113254994D01*
X133533640Y-113335947D01*
X133462211Y-113416899D01*
X133390782Y-113578804D01*
X133390782Y-114064518D01*
X133462211Y-114226423D01*
X133533640Y-114307375D01*
X133676497Y-114388328D01*
X133962211Y-114388328D01*
X134105068Y-114307375D01*
D23*
X144054082Y-84333366D02*
X143101701Y-83666699D01*
X144054082Y-83190508D02*
X142054082Y-83190508D01*
X142054082Y-83952413D01*
X142149320Y-84142889D01*
X142244558Y-84238128D01*
X142435034Y-84333366D01*
X142720749Y-84333366D01*
X142911225Y-84238128D01*
X143006463Y-84142889D01*
X143101701Y-83952413D01*
X143101701Y-83190508D01*
X144054082Y-85476223D02*
X143958844Y-85285747D01*
X143863606Y-85190508D01*
X143673130Y-85095270D01*
X143101701Y-85095270D01*
X142911225Y-85190508D01*
X142815987Y-85285747D01*
X142720749Y-85476223D01*
X142720749Y-85761937D01*
X142815987Y-85952413D01*
X142911225Y-86047651D01*
X143101701Y-86142889D01*
X143673130Y-86142889D01*
X143863606Y-86047651D01*
X143958844Y-85952413D01*
X144054082Y-85761937D01*
X144054082Y-85476223D01*
X144054082Y-87000032D02*
X142054082Y-87000032D01*
X143006463Y-87000032D02*
X143006463Y-88142890D01*
X144054082Y-88142890D02*
X142054082Y-88142890D01*
X143958844Y-89000032D02*
X144054082Y-89285747D01*
X144054082Y-89761937D01*
X143958844Y-89952413D01*
X143863606Y-90047651D01*
X143673130Y-90142890D01*
X143482653Y-90142890D01*
X143292177Y-90047651D01*
X143196939Y-89952413D01*
X143101701Y-89761937D01*
X143006463Y-89380985D01*
X142911225Y-89190509D01*
X142815987Y-89095270D01*
X142625510Y-89000032D01*
X142435034Y-89000032D01*
X142244558Y-89095270D01*
X142149320Y-89190509D01*
X142054082Y-89380985D01*
X142054082Y-89857175D01*
X142149320Y-90142890D01*
D25*
X146989800Y-83754806D02*
X147074467Y-83670140D01*
X147159133Y-83416140D01*
X147159133Y-83246806D01*
X147074467Y-82992806D01*
X146905133Y-82823473D01*
X146735800Y-82738806D01*
X146397133Y-82654140D01*
X146143133Y-82654140D01*
X145804467Y-82738806D01*
X145635133Y-82823473D01*
X145465800Y-82992806D01*
X145381133Y-83246806D01*
X145381133Y-83416140D01*
X145465800Y-83670140D01*
X145550467Y-83754806D01*
X147159133Y-84770806D02*
X147074467Y-84601473D01*
X146989800Y-84516806D01*
X146820467Y-84432140D01*
X146312467Y-84432140D01*
X146143133Y-84516806D01*
X146058467Y-84601473D01*
X145973800Y-84770806D01*
X145973800Y-85024806D01*
X146058467Y-85194140D01*
X146143133Y-85278806D01*
X146312467Y-85363473D01*
X146820467Y-85363473D01*
X146989800Y-85278806D01*
X147074467Y-85194140D01*
X147159133Y-85024806D01*
X147159133Y-84770806D01*
X147159133Y-86125473D02*
X145973800Y-86125473D01*
X146143133Y-86125473D02*
X146058467Y-86210140D01*
X145973800Y-86379473D01*
X145973800Y-86633473D01*
X146058467Y-86802807D01*
X146227800Y-86887473D01*
X147159133Y-86887473D01*
X146227800Y-86887473D02*
X146058467Y-86972140D01*
X145973800Y-87141473D01*
X145973800Y-87395473D01*
X146058467Y-87564807D01*
X146227800Y-87649473D01*
X147159133Y-87649473D01*
X145973800Y-88496140D02*
X147751800Y-88496140D01*
X146058467Y-88496140D02*
X145973800Y-88665474D01*
X145973800Y-89004140D01*
X146058467Y-89173474D01*
X146143133Y-89258140D01*
X146312467Y-89342807D01*
X146820467Y-89342807D01*
X146989800Y-89258140D01*
X147074467Y-89173474D01*
X147159133Y-89004140D01*
X147159133Y-88665474D01*
X147074467Y-88496140D01*
X147159133Y-90358807D02*
X147074467Y-90189474D01*
X146905133Y-90104807D01*
X145381133Y-90104807D01*
X147159133Y-91036140D02*
X145973800Y-91036140D01*
X145381133Y-91036140D02*
X145465800Y-90951474D01*
X145550467Y-91036140D01*
X145465800Y-91120807D01*
X145381133Y-91036140D01*
X145550467Y-91036140D01*
X147159133Y-92644807D02*
X146227800Y-92644807D01*
X146058467Y-92560141D01*
X145973800Y-92390807D01*
X145973800Y-92052141D01*
X146058467Y-91882807D01*
X147074467Y-92644807D02*
X147159133Y-92475474D01*
X147159133Y-92052141D01*
X147074467Y-91882807D01*
X146905133Y-91798141D01*
X146735800Y-91798141D01*
X146566467Y-91882807D01*
X146481800Y-92052141D01*
X146481800Y-92475474D01*
X146397133Y-92644807D01*
X145973800Y-93491474D02*
X147159133Y-93491474D01*
X146143133Y-93491474D02*
X146058467Y-93576141D01*
X145973800Y-93745474D01*
X145973800Y-93999474D01*
X146058467Y-94168808D01*
X146227800Y-94253474D01*
X147159133Y-94253474D01*
X145973800Y-94846141D02*
X145973800Y-95523475D01*
X145381133Y-95100141D02*
X146905133Y-95100141D01*
X147074467Y-95184808D01*
X147159133Y-95354141D01*
X147159133Y-95523475D01*
M02*
