M48
;DRILL file {KiCad 4.0.1-3.201512221401+6198~38~ubuntu15.10.1-stable} date Thu 31 Mar 2016 12:51:12 PM EEST
;FORMAT={-:-/ absolute / metric / decimal}
FMAT,2
METRIC,TZ
T1C0.300
T2C0.600
T3C1.000
T4C1.500
%
G90
G05
M71
T1
X132.682Y-82.357
X132.976Y-92.776
X133.223Y-101.092
X134.087Y-103.668
X134.112Y-100.203
X134.113Y-98.805
X134.366Y-91.821
X134.552Y-78.786
X134.922Y-79.768
X134.924Y-82.596
X134.987Y-92.216
X135.001Y-94.361
X135.382Y-95.631
X135.76Y-74.046
X135.763Y-77.724
X135.763Y-79.756
X135.764Y-98.805
X136.017Y-102.362
X136.093Y-92.738
X136.328Y-74.055
X136.333Y-79.323
X136.334Y-77.724
X136.334Y-78.232
X136.334Y-79.756
X136.366Y-81.847
X136.413Y-100.33
X136.525Y-102.854
X136.843Y-71.247
X136.843Y-71.755
X136.843Y-73.279
X136.843Y-73.853
X136.97Y-87.379
X137.269Y-95.395
X137.28Y-97.849
X137.405Y-86.204
X137.407Y-100.328
X137.414Y-73.088
X137.668Y-102.854
X137.739Y-79.936
X137.897Y-73.085
X138.151Y-98.805
X138.176Y-102.362
X138.367Y-73.088
X138.43Y-80.623
X138.684Y-100.33
X138.887Y-102.362
X139.057Y-86.792
X139.192Y-95.377
X139.192Y-98.806
X139.236Y-97.85
X139.691Y-85.746
X139.784Y-81.153
X140.531Y-97.827
X140.533Y-95.385
X140.653Y-71.056
X140.653Y-71.564
X140.968Y-99.271
X140.97Y-102.616
X141.183Y-91.694
X141.183Y-92.583
X141.183Y-97.831
X141.185Y-95.393
X141.479Y-102.107
X142.038Y-89.148
X142.049Y-88.646
X142.24Y-102.854
X142.35Y-85.
X142.483Y-95.388
X142.487Y-97.84
X142.494Y-88.646
X142.494Y-89.154
X142.621Y-99.822
X142.791Y-102.354
X142.939Y-88.646
X142.939Y-89.154
X143.129Y-95.377
X143.132Y-97.852
X143.256Y-98.806
X143.256Y-99.822
X143.387Y-82.591
X144.16Y-81.863
X144.272Y-98.806
X144.283Y-99.626
X144.97Y-70.739
X144.97Y-71.945
X144.97Y-72.898
X145.034Y-101.981
X145.034Y-102.489
X145.034Y-102.997
X145.034Y-105.156
X145.034Y-105.664
X145.034Y-107.315
X145.034Y-107.823
X145.606Y-71.31
X145.669Y-111.633
X145.783Y-83.172
X145.923Y-112.141
X146.177Y-111.633
X146.287Y-87.356
X146.997Y-79.932
X147.188Y-79.276
T2
X126.069Y-82.311
X126.069Y-83.82
X126.069Y-85.09
X126.069Y-86.36
X126.069Y-87.63
X126.069Y-88.9
X126.069Y-90.17
X126.069Y-91.44
X126.069Y-92.71
X126.069Y-93.98
X126.069Y-95.25
X126.069Y-96.52
X126.069Y-97.79
X126.069Y-99.06
X126.069Y-100.33
X126.069Y-101.6
X126.069Y-102.87
X126.069Y-104.14
X126.069Y-105.41
X126.069Y-106.68
X126.069Y-107.95
X126.069Y-109.22
X126.069Y-110.49
X126.069Y-111.76
X126.069Y-113.03
X126.069Y-114.3
X126.069Y-115.57
X126.069Y-116.84
X126.069Y-118.977
X126.071Y-117.998
X126.075Y-80.01
X126.075Y-81.28
X126.079Y-72.39
X126.079Y-73.66
X126.079Y-74.676
X126.079Y-76.2
X126.079Y-77.216
X126.079Y-78.74
X126.092Y-71.098
X130.619Y-71.098
X132.715Y-71.098
X134.266Y-71.098
X136.5Y-112.395
X136.5Y-113.538
X136.5Y-114.935
X138.43Y-117.
X140.081Y-117.
X141.605Y-117.
X143.5Y-112.395
X143.5Y-113.538
X143.5Y-114.935
X147.32Y-71.464
X149.225Y-71.464
X153.987Y-71.12
X153.987Y-72.39
X153.987Y-73.66
X153.987Y-74.676
X153.987Y-76.2
X153.987Y-78.105
X153.987Y-79.375
X153.987Y-80.645
X153.987Y-82.296
X153.987Y-83.82
X153.987Y-85.09
X153.987Y-86.36
X153.987Y-87.63
X153.987Y-88.9
X153.987Y-90.17
X153.987Y-91.44
X153.987Y-92.71
X153.987Y-93.98
X153.987Y-95.25
X153.987Y-96.52
X153.987Y-97.79
X153.987Y-99.06
X153.987Y-100.33
X153.987Y-101.6
X153.987Y-102.87
X153.987Y-104.14
X153.987Y-105.41
X153.987Y-106.68
X153.987Y-107.95
X153.987Y-109.22
X153.987Y-110.49
X153.987Y-111.76
X153.987Y-113.03
X153.987Y-114.3
X153.987Y-115.57
X153.987Y-116.84
X153.987Y-118.999
X153.993Y-118.006
T3
X128.27Y-74.676
X128.27Y-77.216
X128.27Y-79.756
X128.27Y-82.296
X128.27Y-84.836
X128.27Y-87.376
X128.27Y-89.916
X128.27Y-92.456
X128.27Y-94.996
X128.27Y-97.536
X128.27Y-100.076
X128.27Y-102.616
X128.27Y-105.156
X128.27Y-107.696
X128.27Y-110.236
X128.27Y-112.776
X128.27Y-115.316
X130.81Y-74.676
X130.81Y-77.216
X130.81Y-79.756
X130.81Y-82.296
X130.81Y-84.836
X130.81Y-87.376
X130.81Y-89.916
X130.81Y-92.456
X130.81Y-94.996
X130.81Y-97.536
X130.81Y-100.076
X130.81Y-102.616
X130.81Y-105.156
X130.81Y-107.696
X130.81Y-110.236
X130.81Y-112.776
X130.81Y-115.316
X140.Y-113.5
X149.225Y-74.676
X149.225Y-77.216
X149.225Y-79.756
X149.225Y-82.296
X149.225Y-84.836
X149.225Y-87.376
X149.225Y-89.916
X149.225Y-92.456
X149.225Y-94.996
X149.225Y-97.536
X149.225Y-100.076
X149.225Y-102.616
X149.225Y-105.156
X149.225Y-107.696
X149.225Y-110.236
X149.225Y-112.776
X149.225Y-115.316
X151.765Y-74.676
X151.765Y-77.216
X151.765Y-79.756
X151.765Y-82.296
X151.765Y-84.836
X151.765Y-87.376
X151.765Y-89.916
X151.765Y-92.456
X151.765Y-94.996
X151.765Y-97.536
X151.765Y-100.076
X151.765Y-102.616
X151.765Y-105.156
X151.765Y-107.696
X151.765Y-110.236
X151.765Y-112.776
X151.765Y-115.316
T4
X136.5Y-110.
X136.5Y-117.
X143.5Y-110.
X143.5Y-117.
T0
M30
