G04 #@! TF.FileFunction,Paste,Top*
%FSLAX46Y46*%
G04 Gerber Fmt 4.6, Leading zero omitted, Abs format (unit mm)*
G04 Created by KiCad (PCBNEW 4.0.1-3.201512221401+6198~38~ubuntu15.10.1-stable) date Thu 31 Mar 2016 12:50:45 PM EEST*
%MOMM*%
G01*
G04 APERTURE LIST*
%ADD10C,0.100000*%
%ADD11C,0.254000*%
%ADD12R,1.016000X1.016000*%
%ADD13R,0.500000X0.550000*%
%ADD14R,0.550000X0.500000*%
%ADD15R,1.422400X1.168400*%
%ADD16R,1.400000X1.000000*%
%ADD17R,1.168400X1.422400*%
%ADD18R,0.350000X1.750000*%
%ADD19R,0.350000X1.250000*%
%ADD20R,0.350000X1.200000*%
%ADD21R,1.298400X0.898400*%
G04 APERTURE END LIST*
D10*
D11*
X125000000Y-120000000D02*
X125000000Y-70000000D01*
X155000000Y-120000000D02*
X125000000Y-120000000D01*
X155000000Y-70000000D02*
X155000000Y-120000000D01*
X125000000Y-70000000D02*
X155000000Y-70000000D01*
D12*
X139890500Y-71310500D03*
X138112500Y-71310500D03*
X139954000Y-103632000D03*
X139954000Y-105410000D03*
X142494000Y-87947500D03*
X140716000Y-87947500D03*
X136017000Y-71501000D03*
X136017000Y-73279000D03*
D13*
X140970000Y-98806000D03*
X139954000Y-98806000D03*
D14*
X136398000Y-88392000D03*
X136398000Y-87376000D03*
X137414000Y-99822000D03*
X137414000Y-98806000D03*
X137541000Y-87376000D03*
X137541000Y-88392000D03*
D13*
X137160000Y-75057000D03*
X136144000Y-75057000D03*
X141922500Y-71310500D03*
X142938500Y-71310500D03*
D14*
X135255000Y-90424000D03*
X135255000Y-89408000D03*
X135255000Y-87376000D03*
X135255000Y-88392000D03*
X137668000Y-102362000D03*
X137668000Y-101346000D03*
X135763000Y-81851500D03*
X135763000Y-80835500D03*
D13*
X143954500Y-71310500D03*
X144970500Y-71310500D03*
D14*
X139954000Y-99949000D03*
X139954000Y-100965000D03*
X136525000Y-101346000D03*
X136525000Y-102362000D03*
X142240000Y-102362000D03*
X142240000Y-101346000D03*
X140970000Y-100965000D03*
X140970000Y-99949000D03*
D13*
X139954000Y-102108000D03*
X140970000Y-102108000D03*
X141478000Y-89154000D03*
X140462000Y-89154000D03*
D12*
X133223000Y-100203000D03*
X133223000Y-98425000D03*
X135001000Y-100203000D03*
X135001000Y-98425000D03*
D14*
X136398000Y-99822000D03*
X136398000Y-98806000D03*
X138684000Y-99822000D03*
X138684000Y-98806000D03*
X143764000Y-99822000D03*
X143764000Y-98806000D03*
X142113000Y-99822000D03*
X142113000Y-98806000D03*
D12*
X133223000Y-101981000D03*
X135001000Y-101981000D03*
X143764000Y-102997000D03*
X143764000Y-101219000D03*
D15*
X143319500Y-86296500D03*
X141287500Y-86296500D03*
D16*
X142346500Y-72900500D03*
X142346500Y-74800500D03*
X144546500Y-73850500D03*
D14*
X135763000Y-79248000D03*
X135763000Y-78232000D03*
D17*
X133350000Y-94234000D03*
X133350000Y-96266000D03*
D18*
X142991000Y-77337000D03*
X142341000Y-77337000D03*
X141691000Y-77337000D03*
X141041000Y-77337000D03*
X140391000Y-77337000D03*
X139741000Y-77337000D03*
X139091000Y-77337000D03*
X138441000Y-77337000D03*
X137791000Y-77337000D03*
X137141000Y-77337000D03*
X137141000Y-82937000D03*
X137791000Y-82937000D03*
X138441000Y-82937000D03*
X139091000Y-82937000D03*
X139741000Y-82937000D03*
X140391000Y-82937000D03*
X141041000Y-82937000D03*
X141691000Y-82937000D03*
X142341000Y-82937000D03*
X142991000Y-82937000D03*
D19*
X143783000Y-90526000D03*
X143133000Y-90526000D03*
X142483000Y-90526000D03*
X141833000Y-90526000D03*
X141183000Y-90526000D03*
X140533000Y-90526000D03*
X139883000Y-90526000D03*
X139233000Y-90526000D03*
X138583000Y-90526000D03*
X137933000Y-90526000D03*
X137283000Y-90526000D03*
X136633000Y-90526000D03*
D20*
X136633000Y-96926000D03*
D19*
X137283000Y-96926000D03*
X137933000Y-96926000D03*
X138583000Y-96926000D03*
X139233000Y-96926000D03*
X139883000Y-96926000D03*
X140533000Y-96926000D03*
X141183000Y-96926000D03*
X141833000Y-96926000D03*
X142483000Y-96926000D03*
X143133000Y-96926000D03*
X143783000Y-96926000D03*
D21*
X137899140Y-73853040D03*
X140108940Y-72898000D03*
X140108940Y-74800460D03*
M02*
