G04 #@! TF.FileFunction,Copper,L2,Bot,Signal*
%FSLAX46Y46*%
G04 Gerber Fmt 4.6, Leading zero omitted, Abs format (unit mm)*
G04 Created by KiCad (PCBNEW 4.0.1-3.201512221401+6198~38~ubuntu15.10.1-stable) date Thu 31 Mar 2016 12:51:04 PM EEST*
%MOMM*%
G01*
G04 APERTURE LIST*
%ADD10C,0.100000*%
%ADD11R,1.168400X1.600200*%
%ADD12R,1.750000X1.750000*%
%ADD13C,1.800000*%
%ADD14C,2.500000*%
%ADD15C,2.000000*%
%ADD16C,0.450000*%
%ADD17C,0.900000*%
%ADD18C,0.508000*%
%ADD19C,0.254000*%
%ADD20C,1.270000*%
%ADD21C,2.032000*%
%ADD22C,1.524000*%
%ADD23C,0.203200*%
%ADD24C,1.016000*%
G04 APERTURE END LIST*
D10*
D11*
X145923000Y-102489000D03*
X145923000Y-102489000D03*
X147447000Y-102489000D03*
X145923000Y-105156000D03*
X145923000Y-105156000D03*
X147447000Y-105156000D03*
X145923000Y-107823000D03*
X145923000Y-107823000D03*
X147447000Y-107823000D03*
X145923000Y-110490000D03*
X145923000Y-110490000D03*
X147447000Y-110490000D03*
D12*
X130810000Y-74676000D03*
D13*
X128270000Y-74676000D03*
X130810000Y-77216000D03*
X128270000Y-77216000D03*
X130810000Y-79756000D03*
X128270000Y-79756000D03*
X130810000Y-82296000D03*
X128270000Y-82296000D03*
X130810000Y-84836000D03*
X128270000Y-84836000D03*
X128270000Y-87376000D03*
X130810000Y-87376000D03*
X128270000Y-89916000D03*
X130810000Y-89916000D03*
X128270000Y-92456000D03*
X130810000Y-92456000D03*
X128270000Y-94996000D03*
X130810000Y-94996000D03*
X128270000Y-97536000D03*
X130810000Y-97536000D03*
X128270000Y-105156000D03*
X130810000Y-105156000D03*
X128270000Y-115316000D03*
X130810000Y-112776000D03*
X128270000Y-112776000D03*
X130810000Y-115316000D03*
X130810000Y-110236000D03*
X128270000Y-107696000D03*
X128270000Y-110236000D03*
X130810000Y-107696000D03*
X128270000Y-100076000D03*
X128270000Y-102616000D03*
X130810000Y-102616000D03*
X130810000Y-100076000D03*
D12*
X149225000Y-74676000D03*
D13*
X151765000Y-74676000D03*
X149225000Y-77216000D03*
X151765000Y-77216000D03*
X149225000Y-79756000D03*
X151765000Y-79756000D03*
X149225000Y-82296000D03*
X151765000Y-82296000D03*
X149225000Y-84836000D03*
X151765000Y-84836000D03*
X151765000Y-87376000D03*
X149225000Y-87376000D03*
X151765000Y-89916000D03*
X149225000Y-89916000D03*
X151765000Y-92456000D03*
X149225000Y-92456000D03*
X151765000Y-94996000D03*
X149225000Y-94996000D03*
X151765000Y-97536000D03*
X149225000Y-97536000D03*
X151765000Y-105156000D03*
X149225000Y-105156000D03*
X151765000Y-115316000D03*
X149225000Y-112776000D03*
X151765000Y-112776000D03*
X149225000Y-115316000D03*
X149225000Y-110236000D03*
X151765000Y-107696000D03*
X151765000Y-110236000D03*
X149225000Y-107696000D03*
X151765000Y-100076000D03*
X151765000Y-102616000D03*
X149225000Y-102616000D03*
X149225000Y-100076000D03*
D14*
X136500000Y-117000000D03*
X136500000Y-110000000D03*
X143500000Y-110000000D03*
D15*
X140000000Y-113500000D03*
D14*
X143500000Y-117000000D03*
D16*
X139192000Y-95377000D03*
X141183000Y-91694000D03*
X141183000Y-92583000D03*
X137269475Y-95394525D03*
X134923960Y-82596013D03*
X143387167Y-82591065D03*
X147187611Y-79276164D03*
X136333465Y-79322832D03*
X134921781Y-79768233D03*
D17*
X143500000Y-112395000D03*
X143500000Y-114935000D03*
X136500000Y-112395000D03*
X136500000Y-114935000D03*
X138430000Y-117000000D03*
X141605000Y-117000000D03*
X149225000Y-71463870D03*
X147320000Y-71463870D03*
X134265928Y-71098410D03*
X132715000Y-71098410D03*
X130619500Y-71098410D03*
X126070995Y-117997605D03*
X126069051Y-115570000D03*
X126069051Y-113030000D03*
X126069051Y-110490000D03*
X153992580Y-118005860D03*
X140081000Y-117000000D03*
X143500000Y-113538000D03*
X136500000Y-113538000D03*
D16*
X138887210Y-102362000D03*
X136525000Y-102853629D03*
D17*
X153987500Y-118999000D03*
X153987500Y-116840000D03*
X153987500Y-115570000D03*
X153987500Y-114300000D03*
X153987500Y-113030000D03*
X153987500Y-111760000D03*
X153987500Y-110490000D03*
X153987500Y-109220000D03*
X153987500Y-107950000D03*
X153987500Y-106680000D03*
X153987500Y-105410000D03*
X153987500Y-104140000D03*
X153987500Y-102870000D03*
X153987500Y-101600000D03*
X153987500Y-100330000D03*
X153987500Y-99060000D03*
X153987500Y-97790000D03*
X153987500Y-96520000D03*
X153987500Y-95250000D03*
X153987500Y-93980000D03*
X153987500Y-92710000D03*
X153987500Y-91440000D03*
X153987500Y-90170000D03*
X153987500Y-88900000D03*
X153987500Y-87630000D03*
X153987500Y-86360000D03*
X153987500Y-85090000D03*
X153987500Y-83820000D03*
X153987500Y-82296000D03*
X153987500Y-80645000D03*
X153987500Y-79375000D03*
X153987500Y-78105000D03*
X153987500Y-76200000D03*
X153987500Y-74676000D03*
X153987500Y-73660000D03*
X153987500Y-72390000D03*
X153987500Y-71120000D03*
X126069051Y-118977449D03*
X126069051Y-116840000D03*
X126069051Y-114300000D03*
X126069051Y-111760000D03*
X126069051Y-109220000D03*
X126069051Y-107950000D03*
X126069051Y-106680000D03*
X126069051Y-105410000D03*
X126069051Y-104140000D03*
X126069051Y-102870000D03*
X126069051Y-101600000D03*
X126069051Y-100330000D03*
X126069051Y-99060000D03*
X126069051Y-97790000D03*
X126069051Y-96520000D03*
X126069051Y-95250000D03*
X126069051Y-93980000D03*
X126069051Y-92710000D03*
X126069051Y-91440000D03*
X126069051Y-90170000D03*
X126069051Y-88900000D03*
X126069051Y-87630000D03*
X126069051Y-86360000D03*
X126069051Y-85090000D03*
X126069051Y-83820000D03*
X126069051Y-82311245D03*
X126075295Y-81280000D03*
X126075295Y-80010000D03*
X126079250Y-78740000D03*
X126079250Y-77216000D03*
X126079250Y-76200000D03*
X126079250Y-74676000D03*
X126079250Y-73660000D03*
X126079250Y-72390000D03*
X126091950Y-71098410D03*
D16*
X136334500Y-79756000D03*
X144970500Y-72898000D03*
X144970500Y-71945500D03*
X145605500Y-71310500D03*
X144970500Y-70739000D03*
X140652500Y-71564500D03*
X140652500Y-71056500D03*
X136842500Y-71755000D03*
X136842500Y-71247009D03*
X135763000Y-79756000D03*
X142494000Y-88646000D03*
X142494000Y-89154000D03*
X142938500Y-89154000D03*
X142038428Y-89148265D03*
X142049500Y-88646000D03*
X142938500Y-88646000D03*
X141185193Y-95392740D03*
X143129000Y-95377000D03*
X142483000Y-95388000D03*
X140533000Y-95384500D03*
X144283368Y-99625527D03*
X136969789Y-87378551D03*
X141478871Y-102106949D03*
X140970000Y-102616000D03*
X136017000Y-102362000D03*
X133223000Y-101092000D03*
X136412546Y-100329758D03*
X137407013Y-100327911D03*
X138684000Y-100330000D03*
X134112000Y-100203000D03*
X137279969Y-97848667D03*
X139235593Y-97849739D03*
X143256000Y-99822000D03*
X142621000Y-99822000D03*
X143132422Y-97852020D03*
X142486897Y-97839606D03*
X140967716Y-99270788D03*
X140530704Y-97827162D03*
X141183000Y-97831000D03*
X137897398Y-73085456D03*
X138366500Y-73088500D03*
X137414000Y-73088500D03*
X136327926Y-74054907D03*
X135760308Y-74045971D03*
X136842500Y-73279000D03*
X136842500Y-73853040D03*
X134086720Y-103668164D03*
X144160301Y-81862628D03*
X136365530Y-81846636D03*
X132682329Y-82356920D03*
X136334500Y-77724000D03*
X142790813Y-102354014D03*
X142240000Y-102853629D03*
X137668000Y-102853629D03*
X136334500Y-78232000D03*
X135763000Y-77724000D03*
X138176000Y-102362000D03*
X138430000Y-80623216D03*
X139783844Y-81153036D03*
X145783490Y-83171661D03*
X146287148Y-87355844D03*
X142349728Y-85000116D03*
X139690879Y-85745771D03*
X134986667Y-92216333D03*
X135001000Y-94361000D03*
X139057032Y-86791502D03*
X135382000Y-95631000D03*
X134366000Y-91821000D03*
X137405423Y-86203898D03*
X136093393Y-92737584D03*
X132975781Y-92776117D03*
X134552097Y-78786106D03*
X134113371Y-98804629D03*
X135764371Y-98804629D03*
X138150618Y-98804629D03*
X139192000Y-98806000D03*
X143256000Y-98806000D03*
X144272000Y-98806000D03*
X146997461Y-79931795D03*
X137739352Y-79936430D03*
X145034000Y-107823000D03*
X145034000Y-107315000D03*
X145034000Y-105664000D03*
X145034000Y-105156000D03*
X145034000Y-102997000D03*
X145034000Y-101981000D03*
X145034000Y-102489000D03*
X145923000Y-112141000D03*
X146177000Y-111633000D03*
X145669000Y-111633000D03*
D18*
X136969789Y-87378551D02*
X138237238Y-88646000D01*
X138237238Y-88646000D02*
X142049500Y-88646000D01*
X140533000Y-95384500D02*
X137279500Y-95384500D01*
X137279500Y-95384500D02*
X137269475Y-95394525D01*
X134928908Y-82591065D02*
X134923960Y-82596013D01*
X143387167Y-82591065D02*
X143387166Y-82591064D01*
X143387166Y-82591064D02*
X134928908Y-82591065D01*
D19*
X147140943Y-79322832D02*
X147187611Y-79276164D01*
X136333465Y-79322832D02*
X147140943Y-79322832D01*
D20*
X149225000Y-71098410D02*
X153965910Y-71098410D01*
X146685000Y-71098410D02*
X149225000Y-71098410D01*
D21*
X147320000Y-71463870D02*
X149225000Y-71463870D01*
X149225000Y-71463870D02*
X151765000Y-71463870D01*
D20*
X149225000Y-71098410D02*
X149225000Y-71463870D01*
X134265928Y-71098410D02*
X146685000Y-71098410D01*
D21*
X144907000Y-71463870D02*
X147320000Y-71463870D01*
D20*
X146685000Y-71098410D02*
X146954540Y-71098410D01*
X146954540Y-71098410D02*
X147320000Y-71463870D01*
D21*
X134620000Y-71463870D02*
X144907000Y-71463870D01*
X132715000Y-71463870D02*
X134620000Y-71463870D01*
D20*
X134620000Y-71452482D02*
X134265928Y-71098410D01*
X132715000Y-71098410D02*
X134265928Y-71098410D01*
X134620000Y-71463870D02*
X134620000Y-71452482D01*
X130619500Y-71098410D02*
X132715000Y-71098410D01*
D21*
X130209338Y-71463870D02*
X132715000Y-71463870D01*
D20*
X132715000Y-71463870D02*
X132715000Y-71098410D01*
D18*
X136842500Y-71247009D02*
X136595829Y-71493680D01*
X136595829Y-71493680D02*
X130239148Y-71493680D01*
X130239148Y-71493680D02*
X130209338Y-71463870D01*
D20*
X126091950Y-71098410D02*
X130619500Y-71098410D01*
X130619493Y-71098417D02*
X130619500Y-71098410D01*
X130209338Y-71098417D02*
X130619493Y-71098417D01*
X153965910Y-71098410D02*
X153987500Y-71120000D01*
X126091950Y-71098410D02*
X126091957Y-71098417D01*
X126091957Y-71098417D02*
X130209338Y-71098417D01*
X130209338Y-71098417D02*
X130209338Y-71463870D01*
X153987500Y-118000780D02*
X153992580Y-118005860D01*
X153987500Y-116840000D02*
X153987500Y-118000780D01*
X153987500Y-118010940D02*
X153992580Y-118005860D01*
X153987500Y-118999000D02*
X153987500Y-118010940D01*
X126069051Y-118977449D02*
X126069051Y-117999549D01*
X126069051Y-116840000D02*
X126069051Y-117995661D01*
X126069051Y-117995661D02*
X126070995Y-117997605D01*
X153987500Y-71120000D02*
X152108870Y-71120000D01*
X153987500Y-115570000D02*
X153987500Y-116840000D01*
X153987500Y-114300000D02*
X153987500Y-115570000D01*
X153987500Y-113030000D02*
X153987500Y-114300000D01*
X153987500Y-111760000D02*
X153987500Y-113030000D01*
X153987500Y-110490000D02*
X153987500Y-111760000D01*
X153987500Y-109220000D02*
X153987500Y-110490000D01*
X153987500Y-107950000D02*
X153987500Y-109220000D01*
X153987500Y-106680000D02*
X153987500Y-107950000D01*
X153987500Y-105410000D02*
X153987500Y-106680000D01*
X153987500Y-104140000D02*
X153987500Y-105410000D01*
X153987500Y-102870000D02*
X153987500Y-104140000D01*
X153987500Y-101600000D02*
X153987500Y-102870000D01*
X153987500Y-100330000D02*
X153987500Y-101600000D01*
X153987500Y-99060000D02*
X153987500Y-100330000D01*
X153987500Y-97790000D02*
X153987500Y-99060000D01*
X153987500Y-96520000D02*
X153987500Y-97790000D01*
X153987500Y-95250000D02*
X153987500Y-96520000D01*
X153987500Y-93980000D02*
X153987500Y-95250000D01*
X153987500Y-92710000D02*
X153987500Y-93980000D01*
X153987500Y-91440000D02*
X153987500Y-92710000D01*
X153987500Y-90170000D02*
X153987500Y-91440000D01*
X153987500Y-88900000D02*
X153987500Y-90170000D01*
X153987500Y-87630000D02*
X153987500Y-88900000D01*
X153987500Y-86360000D02*
X153987500Y-87630000D01*
X153987500Y-85090000D02*
X153987500Y-86360000D01*
X153987500Y-83820000D02*
X153987500Y-85090000D01*
X153987500Y-82296000D02*
X153987500Y-83820000D01*
X153987500Y-80645000D02*
X153987500Y-79375000D01*
X153987500Y-82296000D02*
X153987500Y-80645000D01*
X153987500Y-79375000D02*
X153987500Y-78105000D01*
X153987500Y-78105000D02*
X153987500Y-77216000D01*
X153987500Y-77216000D02*
X153987500Y-76200000D01*
X153987500Y-75565000D02*
X153987500Y-76200000D01*
X153987500Y-75565000D02*
X153987500Y-74676000D01*
X153987500Y-73660000D02*
X153987500Y-72390000D01*
X153987500Y-74676000D02*
X153987500Y-73660000D01*
X153987500Y-72390000D02*
X153987500Y-71120000D01*
X126069051Y-115570000D02*
X126069051Y-116840000D01*
X126069051Y-114300000D02*
X126069051Y-115570000D01*
X126069051Y-113030000D02*
X126069051Y-114300000D01*
X126069051Y-111760000D02*
X126069051Y-113030000D01*
X126069051Y-110490000D02*
X126069051Y-111760000D01*
X126069051Y-109220000D02*
X126069051Y-110490000D01*
X126069051Y-107950000D02*
X126069051Y-109220000D01*
X126069051Y-106680000D02*
X126069051Y-107950000D01*
X126069051Y-105410000D02*
X126069051Y-106680000D01*
X126069051Y-104140000D02*
X126069051Y-105410000D01*
X126069051Y-102870000D02*
X126069051Y-104140000D01*
X126069051Y-101600000D02*
X126069051Y-102870000D01*
X126069051Y-100330000D02*
X126069051Y-101600000D01*
X126069051Y-99060000D02*
X126069051Y-100330000D01*
X126069051Y-97790000D02*
X126069051Y-99060000D01*
X126069051Y-96520000D02*
X126069051Y-97790000D01*
X126069051Y-95250000D02*
X126069051Y-96520000D01*
X126069051Y-93980000D02*
X126069051Y-95250000D01*
X126069051Y-92710000D02*
X126069051Y-93980000D01*
X126069051Y-91440000D02*
X126069051Y-92710000D01*
X126069051Y-90170000D02*
X126069051Y-91440000D01*
X126069051Y-88900000D02*
X126069051Y-90170000D01*
X126069051Y-87630000D02*
X126069051Y-88900000D01*
X126069051Y-86360000D02*
X126069051Y-87630000D01*
X126069051Y-85090000D02*
X126069051Y-86360000D01*
X126069051Y-83820000D02*
X126069051Y-85090000D01*
X126069051Y-82311245D02*
X126069051Y-83820000D01*
X126075295Y-81280000D02*
X126075295Y-82286999D01*
X126075295Y-80010000D02*
X126075295Y-81280000D01*
X126079250Y-79406750D02*
X126079250Y-80006045D01*
D18*
X126079250Y-80006045D02*
X126075295Y-80010000D01*
D20*
X126079250Y-78740000D02*
X126079250Y-77470000D01*
X126079250Y-79406750D02*
X126079250Y-78740000D01*
X126079250Y-77470000D02*
X126079250Y-76200000D01*
D18*
X126079250Y-77470000D02*
X126079250Y-77216000D01*
D20*
X126079250Y-76200000D02*
X126079250Y-74676000D01*
X126079250Y-73660000D02*
X126079250Y-72390000D01*
X126079250Y-74676000D02*
X126079250Y-73660000D01*
X126079250Y-72390000D02*
X126079250Y-71111110D01*
D18*
X126079250Y-71111110D02*
X126091950Y-71098410D01*
X144970500Y-72898000D02*
X143637000Y-71564500D01*
X143637000Y-71564500D02*
X140652500Y-71564500D01*
X144970500Y-72517000D02*
X144970500Y-71527370D01*
X144970500Y-72898000D02*
X144970500Y-72517000D01*
X144970500Y-72517000D02*
X151320500Y-72517000D01*
X151320500Y-72517000D02*
X151765000Y-72961500D01*
D21*
X151765000Y-71463870D02*
X151765000Y-72961500D01*
X151765000Y-72961500D02*
X151765000Y-74676000D01*
D18*
X144970500Y-72898000D02*
X151701500Y-72898000D01*
X151701500Y-72898000D02*
X151765000Y-72961500D01*
D20*
X151765000Y-77216000D02*
X153037792Y-77216000D01*
X153037792Y-77216000D02*
X153987500Y-77216000D01*
X151765000Y-74676000D02*
X153037792Y-74676000D01*
X153037792Y-74676000D02*
X153987500Y-74676000D01*
X151765000Y-82296000D02*
X153987500Y-82296000D01*
X152108870Y-71120000D02*
X151765000Y-71463870D01*
X126084296Y-82296000D02*
X126069051Y-82311245D01*
X126069051Y-118977449D02*
X126047500Y-118999000D01*
X126075295Y-82286999D02*
X126084296Y-82296000D01*
X128270000Y-74676000D02*
X126079250Y-74676000D01*
X128270000Y-82296000D02*
X126997208Y-82296000D01*
X126997208Y-82296000D02*
X126084296Y-82296000D01*
X128270000Y-77216000D02*
X126079250Y-77216000D01*
X126079250Y-77216000D02*
X126079250Y-79406750D01*
D21*
X128270000Y-74676000D02*
X128270000Y-71940557D01*
X128270000Y-71940557D02*
X128746687Y-71463870D01*
X128746687Y-71463870D02*
X130209338Y-71463870D01*
D18*
X144970500Y-71527370D02*
X144907000Y-71463870D01*
X140652500Y-71056500D02*
X145351500Y-71056500D01*
X145351500Y-71056500D02*
X145605500Y-71310500D01*
X136842500Y-71247009D02*
X140461991Y-71247009D01*
X140461991Y-71247009D02*
X140652500Y-71056500D01*
D21*
X151765000Y-74676000D02*
X151765000Y-77216000D01*
X128270000Y-77216000D02*
X128270000Y-74676000D01*
D18*
X142483000Y-95388000D02*
X141189933Y-95388000D01*
X141176953Y-95384500D02*
X141185193Y-95392740D01*
X140533000Y-95384500D02*
X141176953Y-95384500D01*
X141189933Y-95388000D02*
X141185193Y-95392740D01*
X143129000Y-95377000D02*
X142494000Y-95377000D01*
X142494000Y-95377000D02*
X142483000Y-95388000D01*
D19*
X136017000Y-102362000D02*
X136572201Y-101806799D01*
X136572201Y-101806799D02*
X141178721Y-101806799D01*
X141178721Y-101806799D02*
X141253872Y-101881950D01*
X141253872Y-101881950D02*
X141478871Y-102106949D01*
D18*
X138684000Y-100330000D02*
X142748000Y-100330000D01*
X142748000Y-100330000D02*
X143256000Y-99822000D01*
X142486897Y-97839606D02*
X143120008Y-97839606D01*
X143120008Y-97839606D02*
X143132422Y-97852020D01*
X141183000Y-97831000D02*
X142478291Y-97831000D01*
X142478291Y-97831000D02*
X142486897Y-97839606D01*
X140530704Y-97827162D02*
X141179162Y-97827162D01*
X141179162Y-97827162D02*
X141183000Y-97831000D01*
X139235593Y-97849739D02*
X140508127Y-97849739D01*
X140508127Y-97849739D02*
X140530704Y-97827162D01*
X137279969Y-97848667D02*
X139234521Y-97848667D01*
X139234521Y-97848667D02*
X139235593Y-97849739D01*
X137407013Y-100327911D02*
X138681911Y-100327911D01*
X138681911Y-100327911D02*
X138684000Y-100330000D01*
D21*
X144311589Y-74676000D02*
X130908621Y-74676000D01*
X130908621Y-74676000D02*
X130810000Y-74577379D01*
X130810000Y-74676000D02*
X130810000Y-74577379D01*
X130810000Y-74577379D02*
X131681074Y-73706305D01*
X131681074Y-73706305D02*
X135400367Y-73706305D01*
X135400367Y-73706305D02*
X135407592Y-73699080D01*
X135407592Y-73699080D02*
X143334669Y-73699080D01*
X143334669Y-73699080D02*
X144311589Y-74676000D01*
X144311589Y-74676000D02*
X149225000Y-74676000D01*
D18*
X136327926Y-74054907D02*
X136327926Y-73736709D01*
X136290297Y-73699080D02*
X135407592Y-73699080D01*
X136327926Y-73736709D02*
X136290297Y-73699080D01*
X135760308Y-74045971D02*
X135413417Y-73699080D01*
X135413417Y-73699080D02*
X135407592Y-73699080D01*
X136365530Y-81846636D02*
X144109219Y-81846636D01*
X144109219Y-81846636D02*
X144125211Y-81862628D01*
X144125211Y-81862628D02*
X144160301Y-81862628D01*
X137149311Y-103668164D02*
X134404918Y-103668164D01*
X137158272Y-103677125D02*
X137149311Y-103668164D01*
X134404918Y-103668164D02*
X134086720Y-103668164D01*
X137816068Y-103683898D02*
X137807754Y-103675584D01*
X137807754Y-103675584D02*
X137159813Y-103675584D01*
X137159813Y-103675584D02*
X137158272Y-103677125D01*
X137158849Y-103676548D02*
X137158272Y-103677125D01*
X142240000Y-102853629D02*
X141409731Y-103683898D01*
X141409731Y-103683898D02*
X137816068Y-103683898D01*
X137816068Y-103683898D02*
X137668000Y-103535830D01*
X132682329Y-82356920D02*
X132684909Y-82359500D01*
X132684909Y-82359500D02*
X132684909Y-82341258D01*
X132684909Y-82341258D02*
X133179531Y-81846636D01*
X133179531Y-81846636D02*
X136365530Y-81846636D01*
X137668000Y-102853629D02*
X138130620Y-102391009D01*
X138130620Y-102391009D02*
X138176000Y-102391009D01*
X137668000Y-102853629D02*
X137668000Y-103535830D01*
X142790813Y-102354014D02*
X142739615Y-102354014D01*
X142739615Y-102354014D02*
X142240000Y-102853629D01*
X136334500Y-77724000D02*
X136334500Y-78226378D01*
D22*
X135636000Y-77216000D02*
X136525000Y-77216000D01*
X136525000Y-77216000D02*
X149225000Y-77216000D01*
D18*
X136334500Y-77724000D02*
X136559499Y-77499001D01*
X136559499Y-77499001D02*
X136559499Y-77250499D01*
X136559499Y-77250499D02*
X136525000Y-77216000D01*
D22*
X130810000Y-77216000D02*
X135636000Y-77216000D01*
D18*
X135763000Y-77724000D02*
X135763000Y-77343000D01*
X135763000Y-77343000D02*
X135636000Y-77216000D01*
D23*
X147340356Y-80625416D02*
X146569905Y-80625416D01*
X146567705Y-80623216D02*
X138748198Y-80623216D01*
X148209772Y-79756000D02*
X147340356Y-80625416D01*
X146569905Y-80625416D02*
X146567705Y-80623216D01*
X138748198Y-80623216D02*
X138430000Y-80623216D01*
X132270500Y-79756000D02*
X133137716Y-80623216D01*
X133137716Y-80623216D02*
X138111802Y-80623216D01*
X138111802Y-80623216D02*
X138430000Y-80623216D01*
D24*
X148209772Y-79756000D02*
X149225000Y-79756000D01*
X130810000Y-79756000D02*
X132270500Y-79756000D01*
D23*
X131699000Y-82296000D02*
X132841964Y-81153036D01*
X139465646Y-81153036D02*
X139783844Y-81153036D01*
X148018500Y-82296000D02*
X146875536Y-81153036D01*
X132841964Y-81153036D02*
X139465646Y-81153036D01*
X146875536Y-81153036D02*
X140102042Y-81153036D01*
X140102042Y-81153036D02*
X139783844Y-81153036D01*
D24*
X148018500Y-82296000D02*
X149225000Y-82296000D01*
X130810000Y-82296000D02*
X131699000Y-82296000D01*
D23*
X148082000Y-84836000D02*
X146304000Y-84836000D01*
X146304000Y-84836000D02*
X145783490Y-84315490D01*
X145783490Y-84315490D02*
X145783490Y-83171661D01*
X133542738Y-84836000D02*
X135207077Y-83171661D01*
X132080000Y-84836000D02*
X133542738Y-84836000D01*
X145465292Y-83171661D02*
X145783490Y-83171661D01*
X135207077Y-83171661D02*
X145465292Y-83171661D01*
X148080336Y-84836000D02*
X148082000Y-84836000D01*
D24*
X148082000Y-84836000D02*
X149225000Y-84836000D01*
X130810000Y-84836000D02*
X132080000Y-84836000D01*
D23*
X129540000Y-86106000D02*
X132847489Y-86106000D01*
X143271014Y-83578072D02*
X145735442Y-86042500D01*
X132847489Y-86106000D02*
X135375417Y-83578072D01*
X135375417Y-83578072D02*
X143271014Y-83578072D01*
X145735442Y-86042500D02*
X150558500Y-86042500D01*
D24*
X128270000Y-84836000D02*
X129540000Y-86106000D01*
X150558500Y-86042500D02*
X151765000Y-84836000D01*
D23*
X142556515Y-84390894D02*
X146780799Y-88615178D01*
X146780799Y-88615178D02*
X150525822Y-88615178D01*
X129540000Y-88646000D02*
X131800395Y-88646000D01*
X136055501Y-84390894D02*
X142556515Y-84390894D01*
X131800395Y-88646000D02*
X136055501Y-84390894D01*
D24*
X150525822Y-88615178D02*
X151765000Y-87376000D01*
X128270000Y-87376000D02*
X129540000Y-88646000D01*
D23*
X135543757Y-83984483D02*
X142915787Y-83984483D01*
X142915787Y-83984483D02*
X146062149Y-87130845D01*
X146062149Y-87130845D02*
X146287148Y-87355844D01*
X132152240Y-87376000D02*
X135543757Y-83984483D01*
X131826000Y-87376000D02*
X132152240Y-87376000D01*
X146605346Y-87355844D02*
X146287148Y-87355844D01*
X147807844Y-87355844D02*
X146605346Y-87355844D01*
X147828000Y-87376000D02*
X147807844Y-87355844D01*
D24*
X131826000Y-87376000D02*
X130810000Y-87376000D01*
X149225000Y-87376000D02*
X147828000Y-87376000D01*
D23*
X132082792Y-89916000D02*
X132082792Y-88938354D01*
X132082792Y-88938354D02*
X136211587Y-84809559D01*
X142165410Y-84809559D02*
X142349728Y-84993877D01*
X142349728Y-84993877D02*
X142349728Y-85000116D01*
X136211587Y-84809559D02*
X142165410Y-84809559D01*
X147828000Y-89916000D02*
X147296262Y-89916000D01*
X147296262Y-89916000D02*
X142380378Y-85000116D01*
X142380378Y-85000116D02*
X142349728Y-85000116D01*
D24*
X147828000Y-89916000D02*
X149225000Y-89916000D01*
X130810000Y-89916000D02*
X132082792Y-89916000D01*
X151765000Y-107696000D02*
X150493750Y-108967250D01*
D23*
X150493750Y-108967250D02*
X148544111Y-108967250D01*
X148544111Y-108967250D02*
X148126262Y-109385099D01*
X148126262Y-109385099D02*
X145094959Y-109385099D01*
X145094959Y-109385099D02*
X145091614Y-109388444D01*
X145091614Y-109388444D02*
X142974275Y-107271105D01*
X142974275Y-107271105D02*
X134016684Y-107271105D01*
X134016684Y-107271105D02*
X132256590Y-109031199D01*
D24*
X129605199Y-109031199D02*
X128270000Y-107696000D01*
D23*
X132256590Y-109031199D02*
X129605199Y-109031199D01*
X139690879Y-85745771D02*
X138893668Y-85745771D01*
X138893668Y-85745771D02*
X138771307Y-85623410D01*
X138771307Y-85623410D02*
X136547237Y-85623410D01*
X136547237Y-85623410D02*
X133559863Y-88610784D01*
X133559863Y-88610784D02*
X133559863Y-91048461D01*
X133559863Y-91048461D02*
X132152324Y-92456000D01*
X132152324Y-92456000D02*
X132082792Y-92456000D01*
X139690879Y-85745771D02*
X141627685Y-85745771D01*
X141627685Y-85745771D02*
X148272500Y-92390586D01*
X148272500Y-92390586D02*
X148272500Y-92456000D01*
D24*
X148272500Y-92456000D02*
X149225000Y-92456000D01*
X130810000Y-92456000D02*
X132082792Y-92456000D01*
X129553798Y-106439798D02*
X128270000Y-105156000D01*
X151765000Y-105156000D02*
X150492347Y-106428653D01*
D23*
X150492347Y-106428653D02*
X148460347Y-106428653D01*
X148460347Y-106428653D02*
X148207556Y-106681444D01*
X148207556Y-106681444D02*
X143534115Y-106681444D01*
X143292469Y-106439798D02*
X129553798Y-106439798D01*
X143534115Y-106681444D02*
X143292469Y-106439798D01*
X134986667Y-91898135D02*
X134986667Y-92216333D01*
X136668248Y-86791502D02*
X134986667Y-88473083D01*
X134986667Y-88473083D02*
X134986667Y-91898135D01*
X139057032Y-86791502D02*
X136668248Y-86791502D01*
X135503409Y-93841399D02*
X135503409Y-93858591D01*
X135503409Y-93858591D02*
X135001000Y-94361000D01*
X148268794Y-94996000D02*
X147114193Y-93841399D01*
X147114193Y-93841399D02*
X135503409Y-93841399D01*
X135503409Y-93841399D02*
X134348808Y-94996000D01*
X134348808Y-94996000D02*
X131892292Y-94996000D01*
D24*
X130810000Y-94996000D02*
X131892292Y-94996000D01*
X148268794Y-94996000D02*
X149225000Y-94996000D01*
D23*
X145094959Y-104051099D02*
X143592386Y-105553673D01*
X133380289Y-105553673D02*
X131712616Y-103886000D01*
X131712616Y-103886000D02*
X129540000Y-103886000D01*
X150502235Y-103878765D02*
X148597235Y-103878765D01*
X148424901Y-104051099D02*
X145094959Y-104051099D01*
X148597235Y-103878765D02*
X148424901Y-104051099D01*
X143592386Y-105553673D02*
X133380289Y-105553673D01*
D24*
X129540000Y-103886000D02*
X128270000Y-102616000D01*
X151765000Y-102616000D02*
X150502235Y-103878765D01*
D23*
X135382000Y-95631000D02*
X135382000Y-95619745D01*
X135382000Y-95619745D02*
X136299465Y-94702280D01*
X136299465Y-94702280D02*
X145118488Y-94702280D01*
X145118488Y-94702280D02*
X147952208Y-97536000D01*
X132082792Y-97536000D02*
X133477000Y-97536000D01*
X133477000Y-97536000D02*
X135382000Y-95631000D01*
X134366000Y-91186000D02*
X134366000Y-91821000D01*
X134366000Y-88519000D02*
X134366000Y-91186000D01*
X137405423Y-86203898D02*
X136681102Y-86203898D01*
X136681102Y-86203898D02*
X134366000Y-88519000D01*
D24*
X149225000Y-97536000D02*
X147952208Y-97536000D01*
X132082792Y-97536000D02*
X130810000Y-97536000D01*
D23*
X129540000Y-96266000D02*
X133982470Y-96266000D01*
X133982470Y-96266000D02*
X136000660Y-94247810D01*
X148324109Y-96200801D02*
X148653500Y-96200801D01*
X148653500Y-96200801D02*
X150560199Y-96200801D01*
X136000660Y-94247810D02*
X146371118Y-94247810D01*
X146371118Y-94247810D02*
X148324109Y-96200801D01*
D24*
X128270000Y-94996000D02*
X129540000Y-96266000D01*
X150560199Y-96200801D02*
X151765000Y-94996000D01*
D23*
X146958741Y-105997169D02*
X147445212Y-105510698D01*
X147445212Y-105510698D02*
X147445212Y-105156000D01*
X147445212Y-105156000D02*
X147447000Y-105156000D01*
D18*
X147193000Y-106045000D02*
X147197306Y-106045000D01*
X147197306Y-106045000D02*
X147447628Y-105794678D01*
X147447628Y-105794678D02*
X147447628Y-105156628D01*
X147447628Y-105156628D02*
X147447000Y-105156000D01*
D23*
X147193000Y-106275033D02*
X147331267Y-106275033D01*
X147331267Y-106275033D02*
X147768996Y-105837304D01*
X147768996Y-105837304D02*
X147768996Y-105477996D01*
X147768996Y-105477996D02*
X147447000Y-105156000D01*
X146939000Y-106275033D02*
X147193000Y-106275033D01*
X147193000Y-106275033D02*
X147193000Y-106045000D01*
X146685000Y-106275033D02*
X146939000Y-106275033D01*
X146958741Y-106255292D02*
X146939000Y-106275033D01*
X146958741Y-105997169D02*
X146958741Y-106255292D01*
X146685000Y-106275033D02*
X146685000Y-106270910D01*
X146685000Y-106270910D02*
X146958741Y-105997169D01*
X143702455Y-106275033D02*
X146685000Y-106275033D01*
D22*
X148082000Y-105156000D02*
X149225000Y-105156000D01*
D24*
X147447000Y-105156000D02*
X148082000Y-105156000D01*
D23*
X131826000Y-105156000D02*
X132703387Y-106033387D01*
X143460809Y-106033387D02*
X143702455Y-106275033D01*
X132703387Y-106033387D02*
X143460809Y-106033387D01*
D24*
X130810000Y-105156000D02*
X131826000Y-105156000D01*
X151765000Y-118110000D02*
X151765000Y-115316000D01*
D23*
X150495000Y-119380000D02*
X151765000Y-118110000D01*
X130048000Y-119380000D02*
X150495000Y-119380000D01*
X128270000Y-117602000D02*
X130048000Y-119380000D01*
D24*
X128270000Y-115316000D02*
X128270000Y-117602000D01*
D23*
X129540000Y-114046000D02*
X129540000Y-117729000D01*
X129540000Y-117729000D02*
X130780497Y-118969497D01*
X130780497Y-118969497D02*
X149635503Y-118969497D01*
X149635503Y-118969497D02*
X150560199Y-118044801D01*
X150560199Y-118044801D02*
X150560199Y-114111199D01*
X150560199Y-114111199D02*
X150495000Y-114046000D01*
D24*
X150495000Y-114046000D02*
X151765000Y-112776000D01*
X129169999Y-113675999D02*
X129540000Y-114046000D01*
X128270000Y-112776000D02*
X129169999Y-113675999D01*
D23*
X130810000Y-117475000D02*
X131898087Y-118563087D01*
X131898087Y-118563087D02*
X148517913Y-118563087D01*
X148517913Y-118563087D02*
X149225000Y-117856000D01*
D24*
X149225000Y-117856000D02*
X149225000Y-115316000D01*
X130810000Y-115316000D02*
X130810000Y-117475000D01*
D22*
X148082000Y-110490000D02*
X148971000Y-110490000D01*
X148971000Y-110490000D02*
X149225000Y-110236000D01*
D24*
X147447000Y-110490000D02*
X148082000Y-110490000D01*
D23*
X146969522Y-108681478D02*
X146969522Y-108653527D01*
X146969522Y-108653527D02*
X147447000Y-108176049D01*
X147447000Y-108176049D02*
X147447000Y-107823000D01*
X146685000Y-108966000D02*
X146685000Y-108939282D01*
X146685000Y-108939282D02*
X146942804Y-108681478D01*
X146942804Y-108681478D02*
X146969522Y-108681478D01*
X146969522Y-108681478D02*
X146975331Y-108681478D01*
X146975331Y-108681478D02*
X147447000Y-108209809D01*
X147447000Y-108209809D02*
X147447000Y-107823000D01*
D18*
X147193000Y-108712000D02*
X147193000Y-108705061D01*
X147193000Y-108705061D02*
X147442735Y-108455326D01*
X147442735Y-108455326D02*
X147442735Y-107827265D01*
X147442735Y-107827265D02*
X147447000Y-107823000D01*
D23*
X147193000Y-108966000D02*
X147307300Y-108966000D01*
X147811580Y-108187580D02*
X147447000Y-107823000D01*
X147307300Y-108966000D02*
X147811580Y-108461720D01*
X147811580Y-108461720D02*
X147811580Y-108187580D01*
X146939000Y-108966000D02*
X147193000Y-108966000D01*
X147193000Y-108966000D02*
X147193000Y-108712000D01*
X146685000Y-108966000D02*
X146939000Y-108966000D01*
X146969522Y-108681478D02*
X146969522Y-108935478D01*
X146969522Y-108935478D02*
X146939000Y-108966000D01*
X145243920Y-108966000D02*
X146685000Y-108966000D01*
D22*
X148082000Y-107823000D02*
X149098000Y-107823000D01*
X149098000Y-107823000D02*
X149225000Y-107696000D01*
D24*
X147447000Y-107823000D02*
X148082000Y-107823000D01*
D23*
X143124129Y-106846209D02*
X145243920Y-108966000D01*
X132334000Y-107696000D02*
X133183791Y-106846209D01*
X133183791Y-106846209D02*
X143124129Y-106846209D01*
D24*
X130810000Y-107696000D02*
X132334000Y-107696000D01*
D23*
X144840625Y-101384099D02*
X150456901Y-101384099D01*
X144021222Y-102203502D02*
X144840625Y-101384099D01*
X144021222Y-103091091D02*
X144021222Y-102203502D01*
X132539751Y-101923473D02*
X132539751Y-103563633D01*
X132539751Y-103563633D02*
X133716967Y-104740849D01*
X129474801Y-101280801D02*
X131897079Y-101280801D01*
X142371464Y-104740849D02*
X144021222Y-103091091D01*
X131897079Y-101280801D02*
X132539751Y-101923473D01*
X133716967Y-104740849D02*
X142371464Y-104740849D01*
D24*
X128270000Y-100076000D02*
X129474801Y-101280801D01*
X150456901Y-101384099D02*
X151765000Y-100076000D01*
D23*
X129605199Y-98871199D02*
X131939106Y-98871199D01*
X131939106Y-98871199D02*
X134403372Y-101335465D01*
X134403372Y-101335465D02*
X143739759Y-101335465D01*
X143739759Y-101335465D02*
X144503945Y-100571279D01*
X144503945Y-100571279D02*
X146088321Y-100571279D01*
X146088321Y-100571279D02*
X147853600Y-98806000D01*
X147853600Y-98806000D02*
X150495000Y-98806000D01*
D24*
X128270000Y-97536000D02*
X129605199Y-98871199D01*
X150495000Y-98806000D02*
X151765000Y-97536000D01*
D23*
X144977407Y-103593901D02*
X143424046Y-105147262D01*
X146939000Y-103593901D02*
X144977407Y-103593901D01*
X131699000Y-103297633D02*
X131699000Y-102616000D01*
X143424046Y-105147262D02*
X133548629Y-105147262D01*
X133548629Y-105147262D02*
X131699000Y-103297633D01*
X146939000Y-103593901D02*
X146939000Y-103340705D01*
X146939000Y-103340705D02*
X146962634Y-103317071D01*
X146688192Y-103593379D02*
X146962634Y-103318937D01*
X146962634Y-103318937D02*
X146962634Y-103317071D01*
X146962634Y-103317071D02*
X147447000Y-102832705D01*
X147447000Y-102832705D02*
X147447000Y-102489000D01*
D18*
X147193000Y-103378000D02*
X147437324Y-103133676D01*
X147437324Y-103133676D02*
X147437324Y-102498676D01*
X147437324Y-102498676D02*
X147447000Y-102489000D01*
D23*
X147447000Y-102489000D02*
X147800427Y-102842427D01*
X147800427Y-102842427D02*
X147800427Y-103138873D01*
X147800427Y-103138873D02*
X147345399Y-103593901D01*
X147345399Y-103593901D02*
X147193000Y-103593901D01*
X147193000Y-103593901D02*
X146939000Y-103593901D01*
X147193000Y-103593901D02*
X147193000Y-103378000D01*
D22*
X148082000Y-102489000D02*
X149098000Y-102489000D01*
X149098000Y-102489000D02*
X149225000Y-102616000D01*
D24*
X147447000Y-102489000D02*
X148082000Y-102489000D01*
X131699000Y-102616000D02*
X130810000Y-102616000D01*
D23*
X133885309Y-104334440D02*
X132946162Y-103395293D01*
X132946162Y-101755134D02*
X131826000Y-100634972D01*
X132946162Y-103395293D02*
X132946162Y-101755134D01*
X135509000Y-104334440D02*
X133885309Y-104334440D01*
X131826000Y-100634972D02*
X131826000Y-100076000D01*
X135525467Y-104334439D02*
X142203123Y-104334439D01*
X142203123Y-104334439D02*
X143614811Y-102922751D01*
X143614811Y-102922751D02*
X143614811Y-102035162D01*
X143614811Y-102035162D02*
X144672285Y-100977688D01*
X146831398Y-100977688D02*
X147733086Y-100076000D01*
X144672285Y-100977688D02*
X146831398Y-100977688D01*
X136054860Y-92776117D02*
X136093393Y-92737584D01*
X132975781Y-92776117D02*
X136054860Y-92776117D01*
D24*
X147733086Y-100076000D02*
X149225000Y-100076000D01*
X130810000Y-100076000D02*
X131826000Y-100076000D01*
D23*
X146911780Y-78786106D02*
X134870295Y-78786106D01*
X150560199Y-78551199D02*
X147146687Y-78551199D01*
X134870295Y-78786106D02*
X134552097Y-78786106D01*
X147146687Y-78551199D02*
X146911780Y-78786106D01*
X134327098Y-78561107D02*
X134552097Y-78786106D01*
X134186791Y-78420801D02*
X134327098Y-78561107D01*
X129605199Y-78420801D02*
X134186791Y-78420801D01*
D24*
X150560199Y-78551199D02*
X151765000Y-79756000D01*
X128270000Y-79756000D02*
X129605199Y-78420801D01*
D23*
X141672634Y-85215970D02*
X147579164Y-91122500D01*
X132161988Y-91186000D02*
X133153453Y-90194535D01*
X133153453Y-88442444D02*
X136379927Y-85215970D01*
X147579164Y-91122500D02*
X150558500Y-91122500D01*
X136379927Y-85215970D02*
X141672634Y-85215970D01*
X129540000Y-91186000D02*
X132161988Y-91186000D01*
X133153453Y-90194535D02*
X133153453Y-88442444D01*
D24*
X129540000Y-91186000D02*
X128270000Y-89916000D01*
X151765000Y-89916000D02*
X150558500Y-91122500D01*
D23*
X150865001Y-93355999D02*
X150560199Y-93660801D01*
X133422589Y-93726000D02*
X129540000Y-93726000D01*
X150560199Y-93660801D02*
X147672615Y-93660801D01*
X147672615Y-93660801D02*
X147446802Y-93434988D01*
X147446802Y-93434988D02*
X133713601Y-93434988D01*
X133713601Y-93434988D02*
X133422589Y-93726000D01*
D24*
X128270000Y-92456000D02*
X129540000Y-93726000D01*
X150865001Y-93355999D02*
X151765000Y-92456000D01*
D18*
X135764371Y-98804629D02*
X134113371Y-98804629D01*
X138150618Y-98804629D02*
X135764371Y-98804629D01*
X139192000Y-98806000D02*
X138151989Y-98806000D01*
X138151989Y-98806000D02*
X138150618Y-98804629D01*
X143256000Y-98806000D02*
X141512586Y-98806000D01*
X141512586Y-98806000D02*
X141295173Y-98588587D01*
X140393269Y-98806000D02*
X139192000Y-98806000D01*
X141295173Y-98588587D02*
X140610682Y-98588587D01*
X140610682Y-98588587D02*
X140393269Y-98806000D01*
X144272000Y-98806000D02*
X143256000Y-98806000D01*
X137739352Y-79936430D02*
X146992826Y-79936430D01*
X146992826Y-79936430D02*
X146997461Y-79931795D01*
X145034000Y-107823000D02*
X145557113Y-108346113D01*
X145557113Y-108346113D02*
X145923000Y-108346113D01*
X145923000Y-108346113D02*
X145923000Y-107823000D01*
X145841209Y-107823000D02*
X145923000Y-107823000D01*
X145034000Y-107823000D02*
X145034000Y-107315000D01*
X145923000Y-107823000D02*
X145034000Y-107823000D01*
X145415000Y-107315000D02*
X145034000Y-107315000D01*
X145923000Y-107823000D02*
X145415000Y-107315000D01*
X145034000Y-105156000D02*
X145532288Y-104657712D01*
X145532288Y-104657712D02*
X145921014Y-104657712D01*
X145921014Y-104657712D02*
X145921014Y-105154014D01*
X145921014Y-105154014D02*
X145923000Y-105156000D01*
X145034000Y-105156000D02*
X145034000Y-105664000D01*
X145415000Y-105664000D02*
X145034000Y-105664000D01*
X145923000Y-105156000D02*
X145415000Y-105664000D01*
X145923000Y-105156000D02*
X145034000Y-105156000D01*
X145034000Y-101981000D02*
X145034000Y-102997000D01*
X145923000Y-102489000D02*
X145034000Y-102489000D01*
X145415000Y-102997000D02*
X145034000Y-102997000D01*
X145923000Y-102489000D02*
X145415000Y-102997000D01*
X145415000Y-101981000D02*
X145034000Y-101981000D01*
X145923000Y-102489000D02*
X145415000Y-101981000D01*
X146177000Y-111633000D02*
X146177000Y-111887000D01*
X146177000Y-111887000D02*
X145923000Y-112141000D01*
X145669000Y-111633000D02*
X145669000Y-111887000D01*
X145669000Y-111887000D02*
X145923000Y-112141000D01*
D24*
X145923000Y-111798100D02*
X145923000Y-112141000D01*
D18*
X145923000Y-110490000D02*
X145923000Y-111798100D01*
X146177000Y-111633000D02*
X145669000Y-111633000D01*
X146177000Y-110744000D02*
X146177000Y-111633000D01*
X145923000Y-110490000D02*
X146177000Y-110744000D01*
X145669000Y-110744000D02*
X145669000Y-111633000D01*
X145923000Y-110490000D02*
X145669000Y-110744000D01*
D23*
G36*
X154517400Y-119517400D02*
X151004178Y-119517400D01*
X151583984Y-118937594D01*
X151765000Y-118973600D01*
X152095485Y-118907862D01*
X152375657Y-118720657D01*
X152562862Y-118440485D01*
X152628600Y-118110000D01*
X152628600Y-116228045D01*
X152828825Y-116028169D01*
X153020382Y-115566850D01*
X153020818Y-115067341D01*
X152830067Y-114605689D01*
X152477169Y-114252175D01*
X152015850Y-114060618D01*
X151701970Y-114060344D01*
X151730743Y-114031571D01*
X152013659Y-114031818D01*
X152475311Y-113841067D01*
X152828825Y-113488169D01*
X153020382Y-113026850D01*
X153020818Y-112527341D01*
X152830067Y-112065689D01*
X152477169Y-111712175D01*
X152015850Y-111520618D01*
X151516341Y-111520182D01*
X151054689Y-111710933D01*
X150701175Y-112063831D01*
X150509618Y-112525150D01*
X150509369Y-112810316D01*
X150480546Y-112839140D01*
X150480818Y-112527341D01*
X150290067Y-112065689D01*
X149937169Y-111712175D01*
X149475850Y-111520618D01*
X149401642Y-111520553D01*
X149444686Y-111491793D01*
X149473659Y-111491818D01*
X149935311Y-111301067D01*
X150288825Y-110948169D01*
X150480382Y-110486850D01*
X150480818Y-109987341D01*
X150409208Y-109814033D01*
X150493750Y-109830849D01*
X150580887Y-109813517D01*
X150509618Y-109985150D01*
X150509182Y-110484659D01*
X150699933Y-110946311D01*
X151052831Y-111299825D01*
X151514150Y-111491382D01*
X152013659Y-111491818D01*
X152475311Y-111301067D01*
X152828825Y-110948169D01*
X153020382Y-110486850D01*
X153020818Y-109987341D01*
X152830067Y-109525689D01*
X152477169Y-109172175D01*
X152015850Y-108980618D01*
X151701970Y-108980344D01*
X151730743Y-108951571D01*
X152013659Y-108951818D01*
X152475311Y-108761067D01*
X152828825Y-108408169D01*
X153020382Y-107946850D01*
X153020818Y-107447341D01*
X152830067Y-106985689D01*
X152477169Y-106632175D01*
X152015850Y-106440618D01*
X151701970Y-106440344D01*
X151730743Y-106411571D01*
X152013659Y-106411818D01*
X152475311Y-106221067D01*
X152828825Y-105868169D01*
X153020382Y-105406850D01*
X153020818Y-104907341D01*
X152830067Y-104445689D01*
X152477169Y-104092175D01*
X152015850Y-103900618D01*
X151701970Y-103900344D01*
X151730743Y-103871571D01*
X152013659Y-103871818D01*
X152475311Y-103681067D01*
X152828825Y-103328169D01*
X153020382Y-102866850D01*
X153020818Y-102367341D01*
X152830067Y-101905689D01*
X152477169Y-101552175D01*
X152015850Y-101360618D01*
X151701970Y-101360344D01*
X151730743Y-101331571D01*
X152013659Y-101331818D01*
X152475311Y-101141067D01*
X152828825Y-100788169D01*
X153020382Y-100326850D01*
X153020818Y-99827341D01*
X152830067Y-99365689D01*
X152477169Y-99012175D01*
X152015850Y-98820618D01*
X151701970Y-98820344D01*
X151730743Y-98791571D01*
X152013659Y-98791818D01*
X152475311Y-98601067D01*
X152828825Y-98248169D01*
X153020382Y-97786850D01*
X153020818Y-97287341D01*
X152830067Y-96825689D01*
X152477169Y-96472175D01*
X152015850Y-96280618D01*
X151701970Y-96280344D01*
X151730743Y-96251571D01*
X152013659Y-96251818D01*
X152475311Y-96061067D01*
X152828825Y-95708169D01*
X153020382Y-95246850D01*
X153020818Y-94747341D01*
X152830067Y-94285689D01*
X152477169Y-93932175D01*
X152015850Y-93740618D01*
X151701970Y-93740344D01*
X151730743Y-93711571D01*
X152013659Y-93711818D01*
X152475311Y-93521067D01*
X152828825Y-93168169D01*
X153020382Y-92706850D01*
X153020818Y-92207341D01*
X152830067Y-91745689D01*
X152477169Y-91392175D01*
X152015850Y-91200618D01*
X151701970Y-91200344D01*
X151730743Y-91171571D01*
X152013659Y-91171818D01*
X152475311Y-90981067D01*
X152828825Y-90628169D01*
X153020382Y-90166850D01*
X153020818Y-89667341D01*
X152830067Y-89205689D01*
X152477169Y-88852175D01*
X152015850Y-88660618D01*
X151701970Y-88660344D01*
X151730743Y-88631571D01*
X152013659Y-88631818D01*
X152475311Y-88441067D01*
X152828825Y-88088169D01*
X153020382Y-87626850D01*
X153020818Y-87127341D01*
X152830067Y-86665689D01*
X152477169Y-86312175D01*
X152015850Y-86120618D01*
X151701970Y-86120344D01*
X151730743Y-86091571D01*
X152013659Y-86091818D01*
X152475311Y-85901067D01*
X152828825Y-85548169D01*
X153020382Y-85086850D01*
X153020818Y-84587341D01*
X152830067Y-84125689D01*
X152477169Y-83772175D01*
X152294511Y-83696329D01*
X152374338Y-83541734D01*
X151765000Y-82932396D01*
X151155662Y-83541734D01*
X151235446Y-83696246D01*
X151054689Y-83770933D01*
X150701175Y-84123831D01*
X150509618Y-84585150D01*
X150509369Y-84870316D01*
X150480546Y-84899140D01*
X150480818Y-84587341D01*
X150290067Y-84125689D01*
X149937169Y-83772175D01*
X149475850Y-83580618D01*
X148976341Y-83580182D01*
X148514689Y-83770933D01*
X148312870Y-83972400D01*
X148082000Y-83972400D01*
X147751515Y-84038138D01*
X147471343Y-84225343D01*
X147368806Y-84378800D01*
X146493378Y-84378800D01*
X146240690Y-84126112D01*
X146240690Y-83535635D01*
X146275412Y-83500974D01*
X146363989Y-83287656D01*
X146364191Y-83056679D01*
X146275986Y-82843207D01*
X146112803Y-82679739D01*
X145899485Y-82591162D01*
X145668508Y-82590960D01*
X145455036Y-82679165D01*
X145419678Y-82714461D01*
X135207077Y-82714461D01*
X135032114Y-82749263D01*
X134883788Y-82848372D01*
X133353360Y-84378800D01*
X132793194Y-84378800D01*
X132690657Y-84225343D01*
X132410485Y-84038138D01*
X132080000Y-83972400D01*
X131722045Y-83972400D01*
X131522169Y-83772175D01*
X131060850Y-83580618D01*
X130561341Y-83580182D01*
X130099689Y-83770933D01*
X129746175Y-84123831D01*
X129554618Y-84585150D01*
X129554344Y-84899029D01*
X129525571Y-84870257D01*
X129525818Y-84587341D01*
X129335067Y-84125689D01*
X128982169Y-83772175D01*
X128799511Y-83696329D01*
X128879338Y-83541734D01*
X128270000Y-82932396D01*
X127660662Y-83541734D01*
X127740446Y-83696246D01*
X127559689Y-83770933D01*
X127206175Y-84123831D01*
X127014618Y-84585150D01*
X127014182Y-85084659D01*
X127204933Y-85546311D01*
X127557831Y-85899825D01*
X128019150Y-86091382D01*
X128304316Y-86091631D01*
X128333140Y-86120454D01*
X128021341Y-86120182D01*
X127559689Y-86310933D01*
X127206175Y-86663831D01*
X127014618Y-87125150D01*
X127014182Y-87624659D01*
X127204933Y-88086311D01*
X127557831Y-88439825D01*
X128019150Y-88631382D01*
X128304316Y-88631631D01*
X128333140Y-88660454D01*
X128021341Y-88660182D01*
X127559689Y-88850933D01*
X127206175Y-89203831D01*
X127014618Y-89665150D01*
X127014182Y-90164659D01*
X127204933Y-90626311D01*
X127557831Y-90979825D01*
X128019150Y-91171382D01*
X128304316Y-91171631D01*
X128333140Y-91200454D01*
X128021341Y-91200182D01*
X127559689Y-91390933D01*
X127206175Y-91743831D01*
X127014618Y-92205150D01*
X127014182Y-92704659D01*
X127204933Y-93166311D01*
X127557831Y-93519825D01*
X128019150Y-93711382D01*
X128304316Y-93711631D01*
X128333140Y-93740454D01*
X128021341Y-93740182D01*
X127559689Y-93930933D01*
X127206175Y-94283831D01*
X127014618Y-94745150D01*
X127014182Y-95244659D01*
X127204933Y-95706311D01*
X127557831Y-96059825D01*
X128019150Y-96251382D01*
X128304316Y-96251631D01*
X128333140Y-96280454D01*
X128021341Y-96280182D01*
X127559689Y-96470933D01*
X127206175Y-96823831D01*
X127014618Y-97285150D01*
X127014182Y-97784659D01*
X127204933Y-98246311D01*
X127557831Y-98599825D01*
X128019150Y-98791382D01*
X128304316Y-98791631D01*
X128333140Y-98820454D01*
X128021341Y-98820182D01*
X127559689Y-99010933D01*
X127206175Y-99363831D01*
X127014618Y-99825150D01*
X127014182Y-100324659D01*
X127204933Y-100786311D01*
X127557831Y-101139825D01*
X128019150Y-101331382D01*
X128304317Y-101331631D01*
X128333140Y-101360454D01*
X128021341Y-101360182D01*
X127559689Y-101550933D01*
X127206175Y-101903831D01*
X127014618Y-102365150D01*
X127014182Y-102864659D01*
X127204933Y-103326311D01*
X127557831Y-103679825D01*
X128019150Y-103871382D01*
X128304316Y-103871631D01*
X128333140Y-103900454D01*
X128021341Y-103900182D01*
X127559689Y-104090933D01*
X127206175Y-104443831D01*
X127014618Y-104905150D01*
X127014182Y-105404659D01*
X127204933Y-105866311D01*
X127557831Y-106219825D01*
X128019150Y-106411382D01*
X128304316Y-106411631D01*
X128333140Y-106440454D01*
X128021341Y-106440182D01*
X127559689Y-106630933D01*
X127206175Y-106983831D01*
X127014618Y-107445150D01*
X127014182Y-107944659D01*
X127204933Y-108406311D01*
X127557831Y-108759825D01*
X128019150Y-108951382D01*
X128304316Y-108951631D01*
X128333140Y-108980454D01*
X128021341Y-108980182D01*
X127559689Y-109170933D01*
X127206175Y-109523831D01*
X127014618Y-109985150D01*
X127014182Y-110484659D01*
X127204933Y-110946311D01*
X127557831Y-111299825D01*
X128019150Y-111491382D01*
X128518659Y-111491818D01*
X128980311Y-111301067D01*
X129333825Y-110948169D01*
X129525382Y-110486850D01*
X129525818Y-109987341D01*
X129477048Y-109869308D01*
X129593132Y-109892399D01*
X129554618Y-109985150D01*
X129554182Y-110484659D01*
X129744933Y-110946311D01*
X130097831Y-111299825D01*
X130559150Y-111491382D01*
X131058659Y-111491818D01*
X131520311Y-111301067D01*
X131873825Y-110948169D01*
X132065382Y-110486850D01*
X132065724Y-110093919D01*
X134606296Y-110093919D01*
X134714504Y-110637919D01*
X134949003Y-110796655D01*
X135745658Y-110000000D01*
X137254342Y-110000000D01*
X138050997Y-110796655D01*
X138285496Y-110637919D01*
X138365930Y-110093919D01*
X141606296Y-110093919D01*
X141714504Y-110637919D01*
X141949003Y-110796655D01*
X142745658Y-110000000D01*
X141949003Y-109203345D01*
X141714504Y-109362081D01*
X141606296Y-110093919D01*
X138365930Y-110093919D01*
X138393704Y-109906081D01*
X138285496Y-109362081D01*
X138050997Y-109203345D01*
X137254342Y-110000000D01*
X135745658Y-110000000D01*
X134949003Y-109203345D01*
X134714504Y-109362081D01*
X134606296Y-110093919D01*
X132065724Y-110093919D01*
X132065818Y-109987341D01*
X131875067Y-109525689D01*
X131837842Y-109488399D01*
X132256590Y-109488399D01*
X132431553Y-109453597D01*
X132579879Y-109354488D01*
X133485364Y-108449003D01*
X135703345Y-108449003D01*
X136500000Y-109245658D01*
X137296655Y-108449003D01*
X137137919Y-108214504D01*
X136406081Y-108106296D01*
X135862081Y-108214504D01*
X135703345Y-108449003D01*
X133485364Y-108449003D01*
X134206062Y-107728305D01*
X142784897Y-107728305D01*
X143203236Y-108146644D01*
X142862081Y-108214504D01*
X142703345Y-108449003D01*
X143500000Y-109245658D01*
X143514142Y-109231516D01*
X144268484Y-109985858D01*
X144254342Y-110000000D01*
X144976234Y-110721892D01*
X144976234Y-111290100D01*
X145001030Y-111421877D01*
X145059400Y-111512587D01*
X145059400Y-112141000D01*
X145125138Y-112471485D01*
X145312343Y-112751657D01*
X145592515Y-112938862D01*
X145923000Y-113004600D01*
X146253485Y-112938862D01*
X146533657Y-112751657D01*
X146720862Y-112471485D01*
X146786600Y-112141000D01*
X146786600Y-111637235D01*
X146862800Y-111652666D01*
X148031200Y-111652666D01*
X148162977Y-111627870D01*
X148194478Y-111607600D01*
X148764774Y-111607600D01*
X148514689Y-111710933D01*
X148161175Y-112063831D01*
X147969618Y-112525150D01*
X147969182Y-113024659D01*
X148159933Y-113486311D01*
X148512831Y-113839825D01*
X148974150Y-114031382D01*
X149473659Y-114031818D01*
X149648600Y-113959534D01*
X149631401Y-114046000D01*
X149648575Y-114132340D01*
X149475850Y-114060618D01*
X148976341Y-114060182D01*
X148514689Y-114250933D01*
X148161175Y-114603831D01*
X147969618Y-115065150D01*
X147969182Y-115564659D01*
X148159933Y-116026311D01*
X148361400Y-116228130D01*
X148361400Y-117856000D01*
X148397406Y-118037016D01*
X148328535Y-118105887D01*
X145072691Y-118105887D01*
X145216461Y-117962117D01*
X145050998Y-117796654D01*
X145285496Y-117637919D01*
X145393704Y-116906081D01*
X145285496Y-116362081D01*
X145050997Y-116203345D01*
X144254342Y-117000000D01*
X144268484Y-117014142D01*
X143514142Y-117768484D01*
X143500000Y-117754342D01*
X143485858Y-117768484D01*
X142731516Y-117014142D01*
X142745658Y-117000000D01*
X141949003Y-116203345D01*
X141714504Y-116362081D01*
X141606296Y-117093919D01*
X141714504Y-117637919D01*
X141949002Y-117796654D01*
X141783539Y-117962117D01*
X141927309Y-118105887D01*
X138072691Y-118105887D01*
X138216461Y-117962117D01*
X138050998Y-117796654D01*
X138285496Y-117637919D01*
X138393704Y-116906081D01*
X138285496Y-116362081D01*
X138050997Y-116203345D01*
X137254342Y-117000000D01*
X137268484Y-117014142D01*
X136514142Y-117768484D01*
X136500000Y-117754342D01*
X136485858Y-117768484D01*
X135731516Y-117014142D01*
X135745658Y-117000000D01*
X134949003Y-116203345D01*
X134714504Y-116362081D01*
X134606296Y-117093919D01*
X134714504Y-117637919D01*
X134949002Y-117796654D01*
X134783539Y-117962117D01*
X134927309Y-118105887D01*
X132087465Y-118105887D01*
X131637594Y-117656016D01*
X131673600Y-117475000D01*
X131673600Y-116228045D01*
X131873825Y-116028169D01*
X132065382Y-115566850D01*
X132065484Y-115449003D01*
X135703345Y-115449003D01*
X136500000Y-116245658D01*
X137296655Y-115449003D01*
X142703345Y-115449003D01*
X143500000Y-116245658D01*
X144296655Y-115449003D01*
X144137919Y-115214504D01*
X143406081Y-115106296D01*
X142862081Y-115214504D01*
X142703345Y-115449003D01*
X137296655Y-115449003D01*
X137137919Y-115214504D01*
X136406081Y-115106296D01*
X135862081Y-115214504D01*
X135703345Y-115449003D01*
X132065484Y-115449003D01*
X132065818Y-115067341D01*
X131875067Y-114605689D01*
X131522169Y-114252175D01*
X131060850Y-114060618D01*
X130561341Y-114060182D01*
X130386400Y-114132466D01*
X130403599Y-114046000D01*
X130386425Y-113959660D01*
X130559150Y-114031382D01*
X131058659Y-114031818D01*
X131520311Y-113841067D01*
X131593041Y-113768463D01*
X138644165Y-113768463D01*
X138850108Y-114266883D01*
X139231112Y-114648552D01*
X139729171Y-114855364D01*
X140268463Y-114855835D01*
X140766883Y-114649892D01*
X141148552Y-114268888D01*
X141355364Y-113770829D01*
X141355835Y-113231537D01*
X141149892Y-112733117D01*
X140768888Y-112351448D01*
X140270829Y-112144636D01*
X139731537Y-112144165D01*
X139233117Y-112350108D01*
X138851448Y-112731112D01*
X138644636Y-113229171D01*
X138644165Y-113768463D01*
X131593041Y-113768463D01*
X131873825Y-113488169D01*
X132065382Y-113026850D01*
X132065818Y-112527341D01*
X131875067Y-112065689D01*
X131522169Y-111712175D01*
X131134011Y-111550997D01*
X135703345Y-111550997D01*
X135862081Y-111785496D01*
X136593919Y-111893704D01*
X137137919Y-111785496D01*
X137296655Y-111550997D01*
X142703345Y-111550997D01*
X142862081Y-111785496D01*
X143593919Y-111893704D01*
X144137919Y-111785496D01*
X144296655Y-111550997D01*
X143500000Y-110754342D01*
X142703345Y-111550997D01*
X137296655Y-111550997D01*
X136500000Y-110754342D01*
X135703345Y-111550997D01*
X131134011Y-111550997D01*
X131060850Y-111520618D01*
X130561341Y-111520182D01*
X130099689Y-111710933D01*
X129746175Y-112063831D01*
X129554618Y-112525150D01*
X129554344Y-112839029D01*
X129525571Y-112810256D01*
X129525818Y-112527341D01*
X129335067Y-112065689D01*
X128982169Y-111712175D01*
X128520850Y-111520618D01*
X128021341Y-111520182D01*
X127559689Y-111710933D01*
X127206175Y-112063831D01*
X127014618Y-112525150D01*
X127014182Y-113024659D01*
X127204933Y-113486311D01*
X127557831Y-113839825D01*
X128019150Y-114031382D01*
X128304316Y-114031631D01*
X128333139Y-114060454D01*
X128021341Y-114060182D01*
X127559689Y-114250933D01*
X127206175Y-114603831D01*
X127014618Y-115065150D01*
X127014182Y-115564659D01*
X127204933Y-116026311D01*
X127406400Y-116228130D01*
X127406400Y-117602000D01*
X127472138Y-117932485D01*
X127659343Y-118212657D01*
X127939515Y-118399862D01*
X128270000Y-118465600D01*
X128451016Y-118429594D01*
X129538822Y-119517400D01*
X125482600Y-119517400D01*
X125482600Y-82389952D01*
X126733695Y-82389952D01*
X126814685Y-82797118D01*
X127024266Y-82905338D01*
X127633604Y-82296000D01*
X127024266Y-81686662D01*
X126814685Y-81794882D01*
X126733695Y-82389952D01*
X125482600Y-82389952D01*
X125482600Y-80004659D01*
X127014182Y-80004659D01*
X127204933Y-80466311D01*
X127557831Y-80819825D01*
X127740489Y-80895671D01*
X127660662Y-81050266D01*
X128270000Y-81659604D01*
X128879338Y-81050266D01*
X128799554Y-80895754D01*
X128980311Y-80821067D01*
X129333825Y-80468169D01*
X129525382Y-80006850D01*
X129525631Y-79721684D01*
X129554454Y-79692860D01*
X129554182Y-80004659D01*
X129744933Y-80466311D01*
X130097831Y-80819825D01*
X130559150Y-81011382D01*
X131058659Y-81011818D01*
X131520311Y-80821067D01*
X131722130Y-80619600D01*
X132270500Y-80619600D01*
X132451516Y-80583594D01*
X132625974Y-80758052D01*
X132518675Y-80829747D01*
X131880016Y-81468406D01*
X131727755Y-81438120D01*
X131522169Y-81232175D01*
X131060850Y-81040618D01*
X130561341Y-81040182D01*
X130099689Y-81230933D01*
X129746175Y-81583831D01*
X129670329Y-81766489D01*
X129515734Y-81686662D01*
X128906396Y-82296000D01*
X129515734Y-82905338D01*
X129670246Y-82825554D01*
X129744933Y-83006311D01*
X130097831Y-83359825D01*
X130559150Y-83551382D01*
X131058659Y-83551818D01*
X131520311Y-83361067D01*
X131727885Y-83153854D01*
X132029485Y-83093862D01*
X132309657Y-82906657D01*
X132346067Y-82852165D01*
X132372411Y-82869767D01*
X132451625Y-82922697D01*
X132684909Y-82969100D01*
X132918193Y-82922697D01*
X133115962Y-82790553D01*
X133152699Y-82735572D01*
X133432035Y-82456236D01*
X144044814Y-82456236D01*
X144125211Y-82472228D01*
X144160301Y-82472228D01*
X144393585Y-82425825D01*
X144591353Y-82293680D01*
X144723498Y-82095912D01*
X144769901Y-81862628D01*
X144723498Y-81629344D01*
X144710730Y-81610236D01*
X146686158Y-81610236D01*
X147190906Y-82114984D01*
X147154900Y-82296000D01*
X147220638Y-82626485D01*
X147407843Y-82906657D01*
X147688015Y-83093862D01*
X148018500Y-83159600D01*
X148312955Y-83159600D01*
X148512831Y-83359825D01*
X148974150Y-83551382D01*
X149473659Y-83551818D01*
X149935311Y-83361067D01*
X150288825Y-83008169D01*
X150364671Y-82825511D01*
X150519266Y-82905338D01*
X151128604Y-82296000D01*
X152401396Y-82296000D01*
X153010734Y-82905338D01*
X153220315Y-82797118D01*
X153301305Y-82202048D01*
X153220315Y-81794882D01*
X153010734Y-81686662D01*
X152401396Y-82296000D01*
X151128604Y-82296000D01*
X150519266Y-81686662D01*
X150364754Y-81766446D01*
X150290067Y-81585689D01*
X149937169Y-81232175D01*
X149475850Y-81040618D01*
X148976341Y-81040182D01*
X148514689Y-81230933D01*
X148312870Y-81432400D01*
X148018500Y-81432400D01*
X147837484Y-81468406D01*
X147433222Y-81064144D01*
X147515319Y-81047814D01*
X147663645Y-80948705D01*
X148028756Y-80583594D01*
X148209772Y-80619600D01*
X148312955Y-80619600D01*
X148512831Y-80819825D01*
X148974150Y-81011382D01*
X149473659Y-81011818D01*
X149935311Y-80821067D01*
X150288825Y-80468169D01*
X150480382Y-80006850D01*
X150480656Y-79692970D01*
X150509429Y-79721743D01*
X150509182Y-80004659D01*
X150699933Y-80466311D01*
X151052831Y-80819825D01*
X151235489Y-80895671D01*
X151155662Y-81050266D01*
X151765000Y-81659604D01*
X152374338Y-81050266D01*
X152294554Y-80895754D01*
X152475311Y-80821067D01*
X152828825Y-80468169D01*
X153020382Y-80006850D01*
X153020818Y-79507341D01*
X152830067Y-79045689D01*
X152477169Y-78692175D01*
X152294511Y-78616329D01*
X152374338Y-78461734D01*
X151765000Y-77852396D01*
X151691885Y-77925511D01*
X151055489Y-77289115D01*
X151128604Y-77216000D01*
X152401396Y-77216000D01*
X153010734Y-77825338D01*
X153220315Y-77717118D01*
X153301305Y-77122048D01*
X153220315Y-76714882D01*
X153010734Y-76606662D01*
X152401396Y-77216000D01*
X151128604Y-77216000D01*
X150519266Y-76606662D01*
X150364754Y-76686446D01*
X150290067Y-76505689D01*
X149937169Y-76152175D01*
X149536234Y-75985692D01*
X149749889Y-75943193D01*
X149782004Y-75921734D01*
X151155662Y-75921734D01*
X151168192Y-75946000D01*
X151155662Y-75970266D01*
X151207478Y-76022082D01*
X151263882Y-76131315D01*
X151325034Y-76139638D01*
X151765000Y-76579604D01*
X152200171Y-76144433D01*
X152266118Y-76131315D01*
X152322522Y-76022082D01*
X152374338Y-75970266D01*
X152361808Y-75946000D01*
X152374338Y-75921734D01*
X152322522Y-75869918D01*
X152266118Y-75760685D01*
X152204966Y-75752362D01*
X151765000Y-75312396D01*
X151329829Y-75747567D01*
X151263882Y-75760685D01*
X151207478Y-75869918D01*
X151155662Y-75921734D01*
X149782004Y-75921734D01*
X149794229Y-75913566D01*
X150100000Y-75913566D01*
X150231777Y-75888770D01*
X150352807Y-75810890D01*
X150434001Y-75692058D01*
X150462566Y-75551000D01*
X150462566Y-75256060D01*
X150519266Y-75285338D01*
X151128604Y-74676000D01*
X152401396Y-74676000D01*
X153010734Y-75285338D01*
X153220315Y-75177118D01*
X153301305Y-74582048D01*
X153220315Y-74174882D01*
X153010734Y-74066662D01*
X152401396Y-74676000D01*
X151128604Y-74676000D01*
X150519266Y-74066662D01*
X150462566Y-74095940D01*
X150462566Y-73801000D01*
X150437770Y-73669223D01*
X150359890Y-73548193D01*
X150241058Y-73466999D01*
X150100000Y-73438434D01*
X149794229Y-73438434D01*
X149782005Y-73430266D01*
X151155662Y-73430266D01*
X151765000Y-74039604D01*
X152374338Y-73430266D01*
X152266118Y-73220685D01*
X151671048Y-73139695D01*
X151263882Y-73220685D01*
X151155662Y-73430266D01*
X149782005Y-73430266D01*
X149749889Y-73408807D01*
X149225000Y-73304400D01*
X144879724Y-73304400D01*
X144304537Y-72729212D01*
X144258272Y-72698299D01*
X143859558Y-72431887D01*
X143334669Y-72327480D01*
X135407597Y-72327480D01*
X135407592Y-72327479D01*
X135371265Y-72334705D01*
X131681079Y-72334705D01*
X131681074Y-72334704D01*
X131156186Y-72439111D01*
X131156184Y-72439112D01*
X131156185Y-72439112D01*
X130711206Y-72736437D01*
X130711204Y-72736440D01*
X130009209Y-73438434D01*
X129935000Y-73438434D01*
X129803223Y-73463230D01*
X129682193Y-73541110D01*
X129600999Y-73659942D01*
X129572434Y-73801000D01*
X129572434Y-74008150D01*
X129542807Y-74052490D01*
X129537729Y-74078019D01*
X129515734Y-74066662D01*
X128906396Y-74676000D01*
X129515734Y-75285338D01*
X129572434Y-75256060D01*
X129572434Y-75551000D01*
X129597230Y-75682777D01*
X129675110Y-75803807D01*
X129793942Y-75885001D01*
X129935000Y-75913566D01*
X130240771Y-75913566D01*
X130285111Y-75943193D01*
X130499331Y-75985804D01*
X130099689Y-76150933D01*
X129746175Y-76503831D01*
X129670329Y-76686489D01*
X129515734Y-76606662D01*
X128906396Y-77216000D01*
X128979511Y-77289115D01*
X128343115Y-77925511D01*
X128270000Y-77852396D01*
X127660662Y-78461734D01*
X127740446Y-78616246D01*
X127559689Y-78690933D01*
X127206175Y-79043831D01*
X127014618Y-79505150D01*
X127014182Y-80004659D01*
X125482600Y-80004659D01*
X125482600Y-77309952D01*
X126733695Y-77309952D01*
X126814685Y-77717118D01*
X127024266Y-77825338D01*
X127633604Y-77216000D01*
X127024266Y-76606662D01*
X126814685Y-76714882D01*
X126733695Y-77309952D01*
X125482600Y-77309952D01*
X125482600Y-75921734D01*
X127660662Y-75921734D01*
X127673192Y-75946000D01*
X127660662Y-75970266D01*
X127712478Y-76022082D01*
X127768882Y-76131315D01*
X127830034Y-76139638D01*
X128270000Y-76579604D01*
X128705171Y-76144433D01*
X128771118Y-76131315D01*
X128827522Y-76022082D01*
X128879338Y-75970266D01*
X128866808Y-75946000D01*
X128879338Y-75921734D01*
X128827522Y-75869918D01*
X128771118Y-75760685D01*
X128709966Y-75752362D01*
X128270000Y-75312396D01*
X127834829Y-75747567D01*
X127768882Y-75760685D01*
X127712478Y-75869918D01*
X127660662Y-75921734D01*
X125482600Y-75921734D01*
X125482600Y-74769952D01*
X126733695Y-74769952D01*
X126814685Y-75177118D01*
X127024266Y-75285338D01*
X127633604Y-74676000D01*
X127024266Y-74066662D01*
X126814685Y-74174882D01*
X126733695Y-74769952D01*
X125482600Y-74769952D01*
X125482600Y-73430266D01*
X127660662Y-73430266D01*
X128270000Y-74039604D01*
X128879338Y-73430266D01*
X128771118Y-73220685D01*
X128176048Y-73139695D01*
X127768882Y-73220685D01*
X127660662Y-73430266D01*
X125482600Y-73430266D01*
X125482600Y-70482600D01*
X154517400Y-70482600D01*
X154517400Y-119517400D01*
X154517400Y-119517400D01*
G37*
X154517400Y-119517400D02*
X151004178Y-119517400D01*
X151583984Y-118937594D01*
X151765000Y-118973600D01*
X152095485Y-118907862D01*
X152375657Y-118720657D01*
X152562862Y-118440485D01*
X152628600Y-118110000D01*
X152628600Y-116228045D01*
X152828825Y-116028169D01*
X153020382Y-115566850D01*
X153020818Y-115067341D01*
X152830067Y-114605689D01*
X152477169Y-114252175D01*
X152015850Y-114060618D01*
X151701970Y-114060344D01*
X151730743Y-114031571D01*
X152013659Y-114031818D01*
X152475311Y-113841067D01*
X152828825Y-113488169D01*
X153020382Y-113026850D01*
X153020818Y-112527341D01*
X152830067Y-112065689D01*
X152477169Y-111712175D01*
X152015850Y-111520618D01*
X151516341Y-111520182D01*
X151054689Y-111710933D01*
X150701175Y-112063831D01*
X150509618Y-112525150D01*
X150509369Y-112810316D01*
X150480546Y-112839140D01*
X150480818Y-112527341D01*
X150290067Y-112065689D01*
X149937169Y-111712175D01*
X149475850Y-111520618D01*
X149401642Y-111520553D01*
X149444686Y-111491793D01*
X149473659Y-111491818D01*
X149935311Y-111301067D01*
X150288825Y-110948169D01*
X150480382Y-110486850D01*
X150480818Y-109987341D01*
X150409208Y-109814033D01*
X150493750Y-109830849D01*
X150580887Y-109813517D01*
X150509618Y-109985150D01*
X150509182Y-110484659D01*
X150699933Y-110946311D01*
X151052831Y-111299825D01*
X151514150Y-111491382D01*
X152013659Y-111491818D01*
X152475311Y-111301067D01*
X152828825Y-110948169D01*
X153020382Y-110486850D01*
X153020818Y-109987341D01*
X152830067Y-109525689D01*
X152477169Y-109172175D01*
X152015850Y-108980618D01*
X151701970Y-108980344D01*
X151730743Y-108951571D01*
X152013659Y-108951818D01*
X152475311Y-108761067D01*
X152828825Y-108408169D01*
X153020382Y-107946850D01*
X153020818Y-107447341D01*
X152830067Y-106985689D01*
X152477169Y-106632175D01*
X152015850Y-106440618D01*
X151701970Y-106440344D01*
X151730743Y-106411571D01*
X152013659Y-106411818D01*
X152475311Y-106221067D01*
X152828825Y-105868169D01*
X153020382Y-105406850D01*
X153020818Y-104907341D01*
X152830067Y-104445689D01*
X152477169Y-104092175D01*
X152015850Y-103900618D01*
X151701970Y-103900344D01*
X151730743Y-103871571D01*
X152013659Y-103871818D01*
X152475311Y-103681067D01*
X152828825Y-103328169D01*
X153020382Y-102866850D01*
X153020818Y-102367341D01*
X152830067Y-101905689D01*
X152477169Y-101552175D01*
X152015850Y-101360618D01*
X151701970Y-101360344D01*
X151730743Y-101331571D01*
X152013659Y-101331818D01*
X152475311Y-101141067D01*
X152828825Y-100788169D01*
X153020382Y-100326850D01*
X153020818Y-99827341D01*
X152830067Y-99365689D01*
X152477169Y-99012175D01*
X152015850Y-98820618D01*
X151701970Y-98820344D01*
X151730743Y-98791571D01*
X152013659Y-98791818D01*
X152475311Y-98601067D01*
X152828825Y-98248169D01*
X153020382Y-97786850D01*
X153020818Y-97287341D01*
X152830067Y-96825689D01*
X152477169Y-96472175D01*
X152015850Y-96280618D01*
X151701970Y-96280344D01*
X151730743Y-96251571D01*
X152013659Y-96251818D01*
X152475311Y-96061067D01*
X152828825Y-95708169D01*
X153020382Y-95246850D01*
X153020818Y-94747341D01*
X152830067Y-94285689D01*
X152477169Y-93932175D01*
X152015850Y-93740618D01*
X151701970Y-93740344D01*
X151730743Y-93711571D01*
X152013659Y-93711818D01*
X152475311Y-93521067D01*
X152828825Y-93168169D01*
X153020382Y-92706850D01*
X153020818Y-92207341D01*
X152830067Y-91745689D01*
X152477169Y-91392175D01*
X152015850Y-91200618D01*
X151701970Y-91200344D01*
X151730743Y-91171571D01*
X152013659Y-91171818D01*
X152475311Y-90981067D01*
X152828825Y-90628169D01*
X153020382Y-90166850D01*
X153020818Y-89667341D01*
X152830067Y-89205689D01*
X152477169Y-88852175D01*
X152015850Y-88660618D01*
X151701970Y-88660344D01*
X151730743Y-88631571D01*
X152013659Y-88631818D01*
X152475311Y-88441067D01*
X152828825Y-88088169D01*
X153020382Y-87626850D01*
X153020818Y-87127341D01*
X152830067Y-86665689D01*
X152477169Y-86312175D01*
X152015850Y-86120618D01*
X151701970Y-86120344D01*
X151730743Y-86091571D01*
X152013659Y-86091818D01*
X152475311Y-85901067D01*
X152828825Y-85548169D01*
X153020382Y-85086850D01*
X153020818Y-84587341D01*
X152830067Y-84125689D01*
X152477169Y-83772175D01*
X152294511Y-83696329D01*
X152374338Y-83541734D01*
X151765000Y-82932396D01*
X151155662Y-83541734D01*
X151235446Y-83696246D01*
X151054689Y-83770933D01*
X150701175Y-84123831D01*
X150509618Y-84585150D01*
X150509369Y-84870316D01*
X150480546Y-84899140D01*
X150480818Y-84587341D01*
X150290067Y-84125689D01*
X149937169Y-83772175D01*
X149475850Y-83580618D01*
X148976341Y-83580182D01*
X148514689Y-83770933D01*
X148312870Y-83972400D01*
X148082000Y-83972400D01*
X147751515Y-84038138D01*
X147471343Y-84225343D01*
X147368806Y-84378800D01*
X146493378Y-84378800D01*
X146240690Y-84126112D01*
X146240690Y-83535635D01*
X146275412Y-83500974D01*
X146363989Y-83287656D01*
X146364191Y-83056679D01*
X146275986Y-82843207D01*
X146112803Y-82679739D01*
X145899485Y-82591162D01*
X145668508Y-82590960D01*
X145455036Y-82679165D01*
X145419678Y-82714461D01*
X135207077Y-82714461D01*
X135032114Y-82749263D01*
X134883788Y-82848372D01*
X133353360Y-84378800D01*
X132793194Y-84378800D01*
X132690657Y-84225343D01*
X132410485Y-84038138D01*
X132080000Y-83972400D01*
X131722045Y-83972400D01*
X131522169Y-83772175D01*
X131060850Y-83580618D01*
X130561341Y-83580182D01*
X130099689Y-83770933D01*
X129746175Y-84123831D01*
X129554618Y-84585150D01*
X129554344Y-84899029D01*
X129525571Y-84870257D01*
X129525818Y-84587341D01*
X129335067Y-84125689D01*
X128982169Y-83772175D01*
X128799511Y-83696329D01*
X128879338Y-83541734D01*
X128270000Y-82932396D01*
X127660662Y-83541734D01*
X127740446Y-83696246D01*
X127559689Y-83770933D01*
X127206175Y-84123831D01*
X127014618Y-84585150D01*
X127014182Y-85084659D01*
X127204933Y-85546311D01*
X127557831Y-85899825D01*
X128019150Y-86091382D01*
X128304316Y-86091631D01*
X128333140Y-86120454D01*
X128021341Y-86120182D01*
X127559689Y-86310933D01*
X127206175Y-86663831D01*
X127014618Y-87125150D01*
X127014182Y-87624659D01*
X127204933Y-88086311D01*
X127557831Y-88439825D01*
X128019150Y-88631382D01*
X128304316Y-88631631D01*
X128333140Y-88660454D01*
X128021341Y-88660182D01*
X127559689Y-88850933D01*
X127206175Y-89203831D01*
X127014618Y-89665150D01*
X127014182Y-90164659D01*
X127204933Y-90626311D01*
X127557831Y-90979825D01*
X128019150Y-91171382D01*
X128304316Y-91171631D01*
X128333140Y-91200454D01*
X128021341Y-91200182D01*
X127559689Y-91390933D01*
X127206175Y-91743831D01*
X127014618Y-92205150D01*
X127014182Y-92704659D01*
X127204933Y-93166311D01*
X127557831Y-93519825D01*
X128019150Y-93711382D01*
X128304316Y-93711631D01*
X128333140Y-93740454D01*
X128021341Y-93740182D01*
X127559689Y-93930933D01*
X127206175Y-94283831D01*
X127014618Y-94745150D01*
X127014182Y-95244659D01*
X127204933Y-95706311D01*
X127557831Y-96059825D01*
X128019150Y-96251382D01*
X128304316Y-96251631D01*
X128333140Y-96280454D01*
X128021341Y-96280182D01*
X127559689Y-96470933D01*
X127206175Y-96823831D01*
X127014618Y-97285150D01*
X127014182Y-97784659D01*
X127204933Y-98246311D01*
X127557831Y-98599825D01*
X128019150Y-98791382D01*
X128304316Y-98791631D01*
X128333140Y-98820454D01*
X128021341Y-98820182D01*
X127559689Y-99010933D01*
X127206175Y-99363831D01*
X127014618Y-99825150D01*
X127014182Y-100324659D01*
X127204933Y-100786311D01*
X127557831Y-101139825D01*
X128019150Y-101331382D01*
X128304317Y-101331631D01*
X128333140Y-101360454D01*
X128021341Y-101360182D01*
X127559689Y-101550933D01*
X127206175Y-101903831D01*
X127014618Y-102365150D01*
X127014182Y-102864659D01*
X127204933Y-103326311D01*
X127557831Y-103679825D01*
X128019150Y-103871382D01*
X128304316Y-103871631D01*
X128333140Y-103900454D01*
X128021341Y-103900182D01*
X127559689Y-104090933D01*
X127206175Y-104443831D01*
X127014618Y-104905150D01*
X127014182Y-105404659D01*
X127204933Y-105866311D01*
X127557831Y-106219825D01*
X128019150Y-106411382D01*
X128304316Y-106411631D01*
X128333140Y-106440454D01*
X128021341Y-106440182D01*
X127559689Y-106630933D01*
X127206175Y-106983831D01*
X127014618Y-107445150D01*
X127014182Y-107944659D01*
X127204933Y-108406311D01*
X127557831Y-108759825D01*
X128019150Y-108951382D01*
X128304316Y-108951631D01*
X128333140Y-108980454D01*
X128021341Y-108980182D01*
X127559689Y-109170933D01*
X127206175Y-109523831D01*
X127014618Y-109985150D01*
X127014182Y-110484659D01*
X127204933Y-110946311D01*
X127557831Y-111299825D01*
X128019150Y-111491382D01*
X128518659Y-111491818D01*
X128980311Y-111301067D01*
X129333825Y-110948169D01*
X129525382Y-110486850D01*
X129525818Y-109987341D01*
X129477048Y-109869308D01*
X129593132Y-109892399D01*
X129554618Y-109985150D01*
X129554182Y-110484659D01*
X129744933Y-110946311D01*
X130097831Y-111299825D01*
X130559150Y-111491382D01*
X131058659Y-111491818D01*
X131520311Y-111301067D01*
X131873825Y-110948169D01*
X132065382Y-110486850D01*
X132065724Y-110093919D01*
X134606296Y-110093919D01*
X134714504Y-110637919D01*
X134949003Y-110796655D01*
X135745658Y-110000000D01*
X137254342Y-110000000D01*
X138050997Y-110796655D01*
X138285496Y-110637919D01*
X138365930Y-110093919D01*
X141606296Y-110093919D01*
X141714504Y-110637919D01*
X141949003Y-110796655D01*
X142745658Y-110000000D01*
X141949003Y-109203345D01*
X141714504Y-109362081D01*
X141606296Y-110093919D01*
X138365930Y-110093919D01*
X138393704Y-109906081D01*
X138285496Y-109362081D01*
X138050997Y-109203345D01*
X137254342Y-110000000D01*
X135745658Y-110000000D01*
X134949003Y-109203345D01*
X134714504Y-109362081D01*
X134606296Y-110093919D01*
X132065724Y-110093919D01*
X132065818Y-109987341D01*
X131875067Y-109525689D01*
X131837842Y-109488399D01*
X132256590Y-109488399D01*
X132431553Y-109453597D01*
X132579879Y-109354488D01*
X133485364Y-108449003D01*
X135703345Y-108449003D01*
X136500000Y-109245658D01*
X137296655Y-108449003D01*
X137137919Y-108214504D01*
X136406081Y-108106296D01*
X135862081Y-108214504D01*
X135703345Y-108449003D01*
X133485364Y-108449003D01*
X134206062Y-107728305D01*
X142784897Y-107728305D01*
X143203236Y-108146644D01*
X142862081Y-108214504D01*
X142703345Y-108449003D01*
X143500000Y-109245658D01*
X143514142Y-109231516D01*
X144268484Y-109985858D01*
X144254342Y-110000000D01*
X144976234Y-110721892D01*
X144976234Y-111290100D01*
X145001030Y-111421877D01*
X145059400Y-111512587D01*
X145059400Y-112141000D01*
X145125138Y-112471485D01*
X145312343Y-112751657D01*
X145592515Y-112938862D01*
X145923000Y-113004600D01*
X146253485Y-112938862D01*
X146533657Y-112751657D01*
X146720862Y-112471485D01*
X146786600Y-112141000D01*
X146786600Y-111637235D01*
X146862800Y-111652666D01*
X148031200Y-111652666D01*
X148162977Y-111627870D01*
X148194478Y-111607600D01*
X148764774Y-111607600D01*
X148514689Y-111710933D01*
X148161175Y-112063831D01*
X147969618Y-112525150D01*
X147969182Y-113024659D01*
X148159933Y-113486311D01*
X148512831Y-113839825D01*
X148974150Y-114031382D01*
X149473659Y-114031818D01*
X149648600Y-113959534D01*
X149631401Y-114046000D01*
X149648575Y-114132340D01*
X149475850Y-114060618D01*
X148976341Y-114060182D01*
X148514689Y-114250933D01*
X148161175Y-114603831D01*
X147969618Y-115065150D01*
X147969182Y-115564659D01*
X148159933Y-116026311D01*
X148361400Y-116228130D01*
X148361400Y-117856000D01*
X148397406Y-118037016D01*
X148328535Y-118105887D01*
X145072691Y-118105887D01*
X145216461Y-117962117D01*
X145050998Y-117796654D01*
X145285496Y-117637919D01*
X145393704Y-116906081D01*
X145285496Y-116362081D01*
X145050997Y-116203345D01*
X144254342Y-117000000D01*
X144268484Y-117014142D01*
X143514142Y-117768484D01*
X143500000Y-117754342D01*
X143485858Y-117768484D01*
X142731516Y-117014142D01*
X142745658Y-117000000D01*
X141949003Y-116203345D01*
X141714504Y-116362081D01*
X141606296Y-117093919D01*
X141714504Y-117637919D01*
X141949002Y-117796654D01*
X141783539Y-117962117D01*
X141927309Y-118105887D01*
X138072691Y-118105887D01*
X138216461Y-117962117D01*
X138050998Y-117796654D01*
X138285496Y-117637919D01*
X138393704Y-116906081D01*
X138285496Y-116362081D01*
X138050997Y-116203345D01*
X137254342Y-117000000D01*
X137268484Y-117014142D01*
X136514142Y-117768484D01*
X136500000Y-117754342D01*
X136485858Y-117768484D01*
X135731516Y-117014142D01*
X135745658Y-117000000D01*
X134949003Y-116203345D01*
X134714504Y-116362081D01*
X134606296Y-117093919D01*
X134714504Y-117637919D01*
X134949002Y-117796654D01*
X134783539Y-117962117D01*
X134927309Y-118105887D01*
X132087465Y-118105887D01*
X131637594Y-117656016D01*
X131673600Y-117475000D01*
X131673600Y-116228045D01*
X131873825Y-116028169D01*
X132065382Y-115566850D01*
X132065484Y-115449003D01*
X135703345Y-115449003D01*
X136500000Y-116245658D01*
X137296655Y-115449003D01*
X142703345Y-115449003D01*
X143500000Y-116245658D01*
X144296655Y-115449003D01*
X144137919Y-115214504D01*
X143406081Y-115106296D01*
X142862081Y-115214504D01*
X142703345Y-115449003D01*
X137296655Y-115449003D01*
X137137919Y-115214504D01*
X136406081Y-115106296D01*
X135862081Y-115214504D01*
X135703345Y-115449003D01*
X132065484Y-115449003D01*
X132065818Y-115067341D01*
X131875067Y-114605689D01*
X131522169Y-114252175D01*
X131060850Y-114060618D01*
X130561341Y-114060182D01*
X130386400Y-114132466D01*
X130403599Y-114046000D01*
X130386425Y-113959660D01*
X130559150Y-114031382D01*
X131058659Y-114031818D01*
X131520311Y-113841067D01*
X131593041Y-113768463D01*
X138644165Y-113768463D01*
X138850108Y-114266883D01*
X139231112Y-114648552D01*
X139729171Y-114855364D01*
X140268463Y-114855835D01*
X140766883Y-114649892D01*
X141148552Y-114268888D01*
X141355364Y-113770829D01*
X141355835Y-113231537D01*
X141149892Y-112733117D01*
X140768888Y-112351448D01*
X140270829Y-112144636D01*
X139731537Y-112144165D01*
X139233117Y-112350108D01*
X138851448Y-112731112D01*
X138644636Y-113229171D01*
X138644165Y-113768463D01*
X131593041Y-113768463D01*
X131873825Y-113488169D01*
X132065382Y-113026850D01*
X132065818Y-112527341D01*
X131875067Y-112065689D01*
X131522169Y-111712175D01*
X131134011Y-111550997D01*
X135703345Y-111550997D01*
X135862081Y-111785496D01*
X136593919Y-111893704D01*
X137137919Y-111785496D01*
X137296655Y-111550997D01*
X142703345Y-111550997D01*
X142862081Y-111785496D01*
X143593919Y-111893704D01*
X144137919Y-111785496D01*
X144296655Y-111550997D01*
X143500000Y-110754342D01*
X142703345Y-111550997D01*
X137296655Y-111550997D01*
X136500000Y-110754342D01*
X135703345Y-111550997D01*
X131134011Y-111550997D01*
X131060850Y-111520618D01*
X130561341Y-111520182D01*
X130099689Y-111710933D01*
X129746175Y-112063831D01*
X129554618Y-112525150D01*
X129554344Y-112839029D01*
X129525571Y-112810256D01*
X129525818Y-112527341D01*
X129335067Y-112065689D01*
X128982169Y-111712175D01*
X128520850Y-111520618D01*
X128021341Y-111520182D01*
X127559689Y-111710933D01*
X127206175Y-112063831D01*
X127014618Y-112525150D01*
X127014182Y-113024659D01*
X127204933Y-113486311D01*
X127557831Y-113839825D01*
X128019150Y-114031382D01*
X128304316Y-114031631D01*
X128333139Y-114060454D01*
X128021341Y-114060182D01*
X127559689Y-114250933D01*
X127206175Y-114603831D01*
X127014618Y-115065150D01*
X127014182Y-115564659D01*
X127204933Y-116026311D01*
X127406400Y-116228130D01*
X127406400Y-117602000D01*
X127472138Y-117932485D01*
X127659343Y-118212657D01*
X127939515Y-118399862D01*
X128270000Y-118465600D01*
X128451016Y-118429594D01*
X129538822Y-119517400D01*
X125482600Y-119517400D01*
X125482600Y-82389952D01*
X126733695Y-82389952D01*
X126814685Y-82797118D01*
X127024266Y-82905338D01*
X127633604Y-82296000D01*
X127024266Y-81686662D01*
X126814685Y-81794882D01*
X126733695Y-82389952D01*
X125482600Y-82389952D01*
X125482600Y-80004659D01*
X127014182Y-80004659D01*
X127204933Y-80466311D01*
X127557831Y-80819825D01*
X127740489Y-80895671D01*
X127660662Y-81050266D01*
X128270000Y-81659604D01*
X128879338Y-81050266D01*
X128799554Y-80895754D01*
X128980311Y-80821067D01*
X129333825Y-80468169D01*
X129525382Y-80006850D01*
X129525631Y-79721684D01*
X129554454Y-79692860D01*
X129554182Y-80004659D01*
X129744933Y-80466311D01*
X130097831Y-80819825D01*
X130559150Y-81011382D01*
X131058659Y-81011818D01*
X131520311Y-80821067D01*
X131722130Y-80619600D01*
X132270500Y-80619600D01*
X132451516Y-80583594D01*
X132625974Y-80758052D01*
X132518675Y-80829747D01*
X131880016Y-81468406D01*
X131727755Y-81438120D01*
X131522169Y-81232175D01*
X131060850Y-81040618D01*
X130561341Y-81040182D01*
X130099689Y-81230933D01*
X129746175Y-81583831D01*
X129670329Y-81766489D01*
X129515734Y-81686662D01*
X128906396Y-82296000D01*
X129515734Y-82905338D01*
X129670246Y-82825554D01*
X129744933Y-83006311D01*
X130097831Y-83359825D01*
X130559150Y-83551382D01*
X131058659Y-83551818D01*
X131520311Y-83361067D01*
X131727885Y-83153854D01*
X132029485Y-83093862D01*
X132309657Y-82906657D01*
X132346067Y-82852165D01*
X132372411Y-82869767D01*
X132451625Y-82922697D01*
X132684909Y-82969100D01*
X132918193Y-82922697D01*
X133115962Y-82790553D01*
X133152699Y-82735572D01*
X133432035Y-82456236D01*
X144044814Y-82456236D01*
X144125211Y-82472228D01*
X144160301Y-82472228D01*
X144393585Y-82425825D01*
X144591353Y-82293680D01*
X144723498Y-82095912D01*
X144769901Y-81862628D01*
X144723498Y-81629344D01*
X144710730Y-81610236D01*
X146686158Y-81610236D01*
X147190906Y-82114984D01*
X147154900Y-82296000D01*
X147220638Y-82626485D01*
X147407843Y-82906657D01*
X147688015Y-83093862D01*
X148018500Y-83159600D01*
X148312955Y-83159600D01*
X148512831Y-83359825D01*
X148974150Y-83551382D01*
X149473659Y-83551818D01*
X149935311Y-83361067D01*
X150288825Y-83008169D01*
X150364671Y-82825511D01*
X150519266Y-82905338D01*
X151128604Y-82296000D01*
X152401396Y-82296000D01*
X153010734Y-82905338D01*
X153220315Y-82797118D01*
X153301305Y-82202048D01*
X153220315Y-81794882D01*
X153010734Y-81686662D01*
X152401396Y-82296000D01*
X151128604Y-82296000D01*
X150519266Y-81686662D01*
X150364754Y-81766446D01*
X150290067Y-81585689D01*
X149937169Y-81232175D01*
X149475850Y-81040618D01*
X148976341Y-81040182D01*
X148514689Y-81230933D01*
X148312870Y-81432400D01*
X148018500Y-81432400D01*
X147837484Y-81468406D01*
X147433222Y-81064144D01*
X147515319Y-81047814D01*
X147663645Y-80948705D01*
X148028756Y-80583594D01*
X148209772Y-80619600D01*
X148312955Y-80619600D01*
X148512831Y-80819825D01*
X148974150Y-81011382D01*
X149473659Y-81011818D01*
X149935311Y-80821067D01*
X150288825Y-80468169D01*
X150480382Y-80006850D01*
X150480656Y-79692970D01*
X150509429Y-79721743D01*
X150509182Y-80004659D01*
X150699933Y-80466311D01*
X151052831Y-80819825D01*
X151235489Y-80895671D01*
X151155662Y-81050266D01*
X151765000Y-81659604D01*
X152374338Y-81050266D01*
X152294554Y-80895754D01*
X152475311Y-80821067D01*
X152828825Y-80468169D01*
X153020382Y-80006850D01*
X153020818Y-79507341D01*
X152830067Y-79045689D01*
X152477169Y-78692175D01*
X152294511Y-78616329D01*
X152374338Y-78461734D01*
X151765000Y-77852396D01*
X151691885Y-77925511D01*
X151055489Y-77289115D01*
X151128604Y-77216000D01*
X152401396Y-77216000D01*
X153010734Y-77825338D01*
X153220315Y-77717118D01*
X153301305Y-77122048D01*
X153220315Y-76714882D01*
X153010734Y-76606662D01*
X152401396Y-77216000D01*
X151128604Y-77216000D01*
X150519266Y-76606662D01*
X150364754Y-76686446D01*
X150290067Y-76505689D01*
X149937169Y-76152175D01*
X149536234Y-75985692D01*
X149749889Y-75943193D01*
X149782004Y-75921734D01*
X151155662Y-75921734D01*
X151168192Y-75946000D01*
X151155662Y-75970266D01*
X151207478Y-76022082D01*
X151263882Y-76131315D01*
X151325034Y-76139638D01*
X151765000Y-76579604D01*
X152200171Y-76144433D01*
X152266118Y-76131315D01*
X152322522Y-76022082D01*
X152374338Y-75970266D01*
X152361808Y-75946000D01*
X152374338Y-75921734D01*
X152322522Y-75869918D01*
X152266118Y-75760685D01*
X152204966Y-75752362D01*
X151765000Y-75312396D01*
X151329829Y-75747567D01*
X151263882Y-75760685D01*
X151207478Y-75869918D01*
X151155662Y-75921734D01*
X149782004Y-75921734D01*
X149794229Y-75913566D01*
X150100000Y-75913566D01*
X150231777Y-75888770D01*
X150352807Y-75810890D01*
X150434001Y-75692058D01*
X150462566Y-75551000D01*
X150462566Y-75256060D01*
X150519266Y-75285338D01*
X151128604Y-74676000D01*
X152401396Y-74676000D01*
X153010734Y-75285338D01*
X153220315Y-75177118D01*
X153301305Y-74582048D01*
X153220315Y-74174882D01*
X153010734Y-74066662D01*
X152401396Y-74676000D01*
X151128604Y-74676000D01*
X150519266Y-74066662D01*
X150462566Y-74095940D01*
X150462566Y-73801000D01*
X150437770Y-73669223D01*
X150359890Y-73548193D01*
X150241058Y-73466999D01*
X150100000Y-73438434D01*
X149794229Y-73438434D01*
X149782005Y-73430266D01*
X151155662Y-73430266D01*
X151765000Y-74039604D01*
X152374338Y-73430266D01*
X152266118Y-73220685D01*
X151671048Y-73139695D01*
X151263882Y-73220685D01*
X151155662Y-73430266D01*
X149782005Y-73430266D01*
X149749889Y-73408807D01*
X149225000Y-73304400D01*
X144879724Y-73304400D01*
X144304537Y-72729212D01*
X144258272Y-72698299D01*
X143859558Y-72431887D01*
X143334669Y-72327480D01*
X135407597Y-72327480D01*
X135407592Y-72327479D01*
X135371265Y-72334705D01*
X131681079Y-72334705D01*
X131681074Y-72334704D01*
X131156186Y-72439111D01*
X131156184Y-72439112D01*
X131156185Y-72439112D01*
X130711206Y-72736437D01*
X130711204Y-72736440D01*
X130009209Y-73438434D01*
X129935000Y-73438434D01*
X129803223Y-73463230D01*
X129682193Y-73541110D01*
X129600999Y-73659942D01*
X129572434Y-73801000D01*
X129572434Y-74008150D01*
X129542807Y-74052490D01*
X129537729Y-74078019D01*
X129515734Y-74066662D01*
X128906396Y-74676000D01*
X129515734Y-75285338D01*
X129572434Y-75256060D01*
X129572434Y-75551000D01*
X129597230Y-75682777D01*
X129675110Y-75803807D01*
X129793942Y-75885001D01*
X129935000Y-75913566D01*
X130240771Y-75913566D01*
X130285111Y-75943193D01*
X130499331Y-75985804D01*
X130099689Y-76150933D01*
X129746175Y-76503831D01*
X129670329Y-76686489D01*
X129515734Y-76606662D01*
X128906396Y-77216000D01*
X128979511Y-77289115D01*
X128343115Y-77925511D01*
X128270000Y-77852396D01*
X127660662Y-78461734D01*
X127740446Y-78616246D01*
X127559689Y-78690933D01*
X127206175Y-79043831D01*
X127014618Y-79505150D01*
X127014182Y-80004659D01*
X125482600Y-80004659D01*
X125482600Y-77309952D01*
X126733695Y-77309952D01*
X126814685Y-77717118D01*
X127024266Y-77825338D01*
X127633604Y-77216000D01*
X127024266Y-76606662D01*
X126814685Y-76714882D01*
X126733695Y-77309952D01*
X125482600Y-77309952D01*
X125482600Y-75921734D01*
X127660662Y-75921734D01*
X127673192Y-75946000D01*
X127660662Y-75970266D01*
X127712478Y-76022082D01*
X127768882Y-76131315D01*
X127830034Y-76139638D01*
X128270000Y-76579604D01*
X128705171Y-76144433D01*
X128771118Y-76131315D01*
X128827522Y-76022082D01*
X128879338Y-75970266D01*
X128866808Y-75946000D01*
X128879338Y-75921734D01*
X128827522Y-75869918D01*
X128771118Y-75760685D01*
X128709966Y-75752362D01*
X128270000Y-75312396D01*
X127834829Y-75747567D01*
X127768882Y-75760685D01*
X127712478Y-75869918D01*
X127660662Y-75921734D01*
X125482600Y-75921734D01*
X125482600Y-74769952D01*
X126733695Y-74769952D01*
X126814685Y-75177118D01*
X127024266Y-75285338D01*
X127633604Y-74676000D01*
X127024266Y-74066662D01*
X126814685Y-74174882D01*
X126733695Y-74769952D01*
X125482600Y-74769952D01*
X125482600Y-73430266D01*
X127660662Y-73430266D01*
X128270000Y-74039604D01*
X128879338Y-73430266D01*
X128771118Y-73220685D01*
X128176048Y-73139695D01*
X127768882Y-73220685D01*
X127660662Y-73430266D01*
X125482600Y-73430266D01*
X125482600Y-70482600D01*
X154517400Y-70482600D01*
X154517400Y-119517400D01*
G36*
X133971396Y-78901088D02*
X134059601Y-79114560D01*
X134222784Y-79278028D01*
X134436102Y-79366605D01*
X134667079Y-79366807D01*
X134880551Y-79278602D01*
X134915909Y-79243306D01*
X146911780Y-79243306D01*
X147086743Y-79208504D01*
X147235069Y-79109395D01*
X147336065Y-79008399D01*
X147804066Y-79008399D01*
X147599115Y-79145343D01*
X147411910Y-79425515D01*
X147400649Y-79482125D01*
X147230745Y-79368598D01*
X146997461Y-79322195D01*
X146974159Y-79326830D01*
X137739352Y-79326830D01*
X137506068Y-79373233D01*
X137308300Y-79505378D01*
X137176155Y-79703146D01*
X137129752Y-79936430D01*
X137175419Y-80166016D01*
X133327094Y-80166016D01*
X133098094Y-79937016D01*
X133134100Y-79756000D01*
X133068362Y-79425515D01*
X132881157Y-79145343D01*
X132600985Y-78958138D01*
X132270500Y-78892400D01*
X131722045Y-78892400D01*
X131707671Y-78878001D01*
X133971416Y-78878001D01*
X133971396Y-78901088D01*
X133971396Y-78901088D01*
G37*
X133971396Y-78901088D02*
X134059601Y-79114560D01*
X134222784Y-79278028D01*
X134436102Y-79366605D01*
X134667079Y-79366807D01*
X134880551Y-79278602D01*
X134915909Y-79243306D01*
X146911780Y-79243306D01*
X147086743Y-79208504D01*
X147235069Y-79109395D01*
X147336065Y-79008399D01*
X147804066Y-79008399D01*
X147599115Y-79145343D01*
X147411910Y-79425515D01*
X147400649Y-79482125D01*
X147230745Y-79368598D01*
X146997461Y-79322195D01*
X146974159Y-79326830D01*
X137739352Y-79326830D01*
X137506068Y-79373233D01*
X137308300Y-79505378D01*
X137176155Y-79703146D01*
X137129752Y-79936430D01*
X137175419Y-80166016D01*
X133327094Y-80166016D01*
X133098094Y-79937016D01*
X133134100Y-79756000D01*
X133068362Y-79425515D01*
X132881157Y-79145343D01*
X132600985Y-78958138D01*
X132270500Y-78892400D01*
X131722045Y-78892400D01*
X131707671Y-78878001D01*
X133971416Y-78878001D01*
X133971396Y-78901088D01*
G36*
X134080082Y-101658754D02*
X134208281Y-101744414D01*
X134228409Y-101757863D01*
X134403372Y-101792665D01*
X138033510Y-101792665D01*
X137995895Y-101808208D01*
X137907768Y-101825737D01*
X137897336Y-101827812D01*
X137699567Y-101959957D01*
X137236949Y-102422576D01*
X137236948Y-102422577D01*
X137104803Y-102620345D01*
X137058400Y-102853629D01*
X137058400Y-103058564D01*
X134086720Y-103058564D01*
X133853436Y-103104967D01*
X133655668Y-103237112D01*
X133567104Y-103369657D01*
X133403362Y-103205915D01*
X133403362Y-101755134D01*
X133368560Y-101580171D01*
X133269451Y-101431845D01*
X132471747Y-100634141D01*
X132623862Y-100406485D01*
X132657700Y-100236371D01*
X134080082Y-101658754D01*
X134080082Y-101658754D01*
G37*
X134080082Y-101658754D02*
X134208281Y-101744414D01*
X134228409Y-101757863D01*
X134403372Y-101792665D01*
X138033510Y-101792665D01*
X137995895Y-101808208D01*
X137907768Y-101825737D01*
X137897336Y-101827812D01*
X137699567Y-101959957D01*
X137236949Y-102422576D01*
X137236948Y-102422577D01*
X137104803Y-102620345D01*
X137058400Y-102853629D01*
X137058400Y-103058564D01*
X134086720Y-103058564D01*
X133853436Y-103104967D01*
X133655668Y-103237112D01*
X133567104Y-103369657D01*
X133403362Y-103205915D01*
X133403362Y-101755134D01*
X133368560Y-101580171D01*
X133269451Y-101431845D01*
X132471747Y-100634141D01*
X132623862Y-100406485D01*
X132657700Y-100236371D01*
X134080082Y-101658754D01*
G36*
X142308562Y-101922962D02*
X141808951Y-102422574D01*
X141808948Y-102422576D01*
X141157227Y-103074298D01*
X138309435Y-103074298D01*
X138470293Y-102913441D01*
X138607052Y-102822061D01*
X138739197Y-102624293D01*
X138785600Y-102391009D01*
X138739197Y-102157725D01*
X138688384Y-102081678D01*
X138668496Y-102033546D01*
X138631378Y-101996363D01*
X138607052Y-101959957D01*
X138570964Y-101935844D01*
X138505313Y-101870078D01*
X138418738Y-101834129D01*
X138409284Y-101827812D01*
X138398229Y-101825613D01*
X138318881Y-101792665D01*
X142503565Y-101792665D01*
X142308562Y-101922962D01*
X142308562Y-101922962D01*
G37*
X142308562Y-101922962D02*
X141808951Y-102422574D01*
X141808948Y-102422576D01*
X141157227Y-103074298D01*
X138309435Y-103074298D01*
X138470293Y-102913441D01*
X138607052Y-102822061D01*
X138739197Y-102624293D01*
X138785600Y-102391009D01*
X138739197Y-102157725D01*
X138688384Y-102081678D01*
X138668496Y-102033546D01*
X138631378Y-101996363D01*
X138607052Y-101959957D01*
X138570964Y-101935844D01*
X138505313Y-101870078D01*
X138418738Y-101834129D01*
X138409284Y-101827812D01*
X138398229Y-101825613D01*
X138318881Y-101792665D01*
X142503565Y-101792665D01*
X142308562Y-101922962D01*
G36*
X147124614Y-97354984D02*
X147088608Y-97536000D01*
X147154346Y-97866485D01*
X147341551Y-98146657D01*
X147621723Y-98333862D01*
X147775210Y-98364393D01*
X147678637Y-98383602D01*
X147530311Y-98482710D01*
X145898943Y-100114079D01*
X144503945Y-100114079D01*
X144328982Y-100148881D01*
X144180656Y-100247990D01*
X143550381Y-100878265D01*
X134592751Y-100878265D01*
X132519115Y-98804629D01*
X133503771Y-98804629D01*
X133550174Y-99037913D01*
X133682319Y-99235681D01*
X133880087Y-99367826D01*
X134113371Y-99414229D01*
X138145097Y-99414229D01*
X138151989Y-99415600D01*
X140393269Y-99415600D01*
X140626553Y-99369197D01*
X140824321Y-99237052D01*
X140863186Y-99198187D01*
X141042668Y-99198187D01*
X141081533Y-99237052D01*
X141271271Y-99363831D01*
X141279302Y-99369197D01*
X141512586Y-99415600D01*
X144272000Y-99415600D01*
X144505284Y-99369197D01*
X144703052Y-99237052D01*
X144835197Y-99039284D01*
X144881600Y-98806000D01*
X144835197Y-98572716D01*
X144703052Y-98374948D01*
X144505284Y-98242803D01*
X144272000Y-98196400D01*
X141765090Y-98196400D01*
X141726225Y-98157535D01*
X141528457Y-98025390D01*
X141295173Y-97978987D01*
X140610682Y-97978987D01*
X140377398Y-98025390D01*
X140179629Y-98157535D01*
X140140764Y-98196400D01*
X138157510Y-98196400D01*
X138150618Y-98195029D01*
X134113371Y-98195029D01*
X133880087Y-98241432D01*
X133682319Y-98373577D01*
X133550174Y-98571345D01*
X133503771Y-98804629D01*
X132519115Y-98804629D01*
X132262395Y-98547910D01*
X132114069Y-98448801D01*
X131939106Y-98413999D01*
X131707706Y-98413999D01*
X131722130Y-98399600D01*
X132082792Y-98399600D01*
X132413277Y-98333862D01*
X132693449Y-98146657D01*
X132795986Y-97993200D01*
X133477000Y-97993200D01*
X133651963Y-97958398D01*
X133800289Y-97859289D01*
X135447920Y-96211658D01*
X135496982Y-96211701D01*
X135710454Y-96123496D01*
X135873922Y-95960313D01*
X135962499Y-95746995D01*
X135962553Y-95685771D01*
X136488844Y-95159480D01*
X144929110Y-95159480D01*
X147124614Y-97354984D01*
X147124614Y-97354984D01*
G37*
X147124614Y-97354984D02*
X147088608Y-97536000D01*
X147154346Y-97866485D01*
X147341551Y-98146657D01*
X147621723Y-98333862D01*
X147775210Y-98364393D01*
X147678637Y-98383602D01*
X147530311Y-98482710D01*
X145898943Y-100114079D01*
X144503945Y-100114079D01*
X144328982Y-100148881D01*
X144180656Y-100247990D01*
X143550381Y-100878265D01*
X134592751Y-100878265D01*
X132519115Y-98804629D01*
X133503771Y-98804629D01*
X133550174Y-99037913D01*
X133682319Y-99235681D01*
X133880087Y-99367826D01*
X134113371Y-99414229D01*
X138145097Y-99414229D01*
X138151989Y-99415600D01*
X140393269Y-99415600D01*
X140626553Y-99369197D01*
X140824321Y-99237052D01*
X140863186Y-99198187D01*
X141042668Y-99198187D01*
X141081533Y-99237052D01*
X141271271Y-99363831D01*
X141279302Y-99369197D01*
X141512586Y-99415600D01*
X144272000Y-99415600D01*
X144505284Y-99369197D01*
X144703052Y-99237052D01*
X144835197Y-99039284D01*
X144881600Y-98806000D01*
X144835197Y-98572716D01*
X144703052Y-98374948D01*
X144505284Y-98242803D01*
X144272000Y-98196400D01*
X141765090Y-98196400D01*
X141726225Y-98157535D01*
X141528457Y-98025390D01*
X141295173Y-97978987D01*
X140610682Y-97978987D01*
X140377398Y-98025390D01*
X140179629Y-98157535D01*
X140140764Y-98196400D01*
X138157510Y-98196400D01*
X138150618Y-98195029D01*
X134113371Y-98195029D01*
X133880087Y-98241432D01*
X133682319Y-98373577D01*
X133550174Y-98571345D01*
X133503771Y-98804629D01*
X132519115Y-98804629D01*
X132262395Y-98547910D01*
X132114069Y-98448801D01*
X131939106Y-98413999D01*
X131707706Y-98413999D01*
X131722130Y-98399600D01*
X132082792Y-98399600D01*
X132413277Y-98333862D01*
X132693449Y-98146657D01*
X132795986Y-97993200D01*
X133477000Y-97993200D01*
X133651963Y-97958398D01*
X133800289Y-97859289D01*
X135447920Y-96211658D01*
X135496982Y-96211701D01*
X135710454Y-96123496D01*
X135873922Y-95960313D01*
X135962499Y-95746995D01*
X135962553Y-95685771D01*
X136488844Y-95159480D01*
X144929110Y-95159480D01*
X147124614Y-97354984D01*
G36*
X138718705Y-86168169D02*
X138893668Y-86202971D01*
X139326905Y-86202971D01*
X139361566Y-86237693D01*
X139574884Y-86326270D01*
X139805861Y-86326472D01*
X140019333Y-86238267D01*
X140054691Y-86202971D01*
X141438307Y-86202971D01*
X147455759Y-92220424D01*
X147408900Y-92456000D01*
X147474638Y-92786485D01*
X147628904Y-93017360D01*
X147621765Y-93012590D01*
X147446802Y-92977788D01*
X136622316Y-92977788D01*
X136673892Y-92853579D01*
X136674094Y-92622602D01*
X136585889Y-92409130D01*
X136422706Y-92245662D01*
X136209388Y-92157085D01*
X135978411Y-92156883D01*
X135764939Y-92245088D01*
X135690981Y-92318917D01*
X135567178Y-92318917D01*
X135567368Y-92101351D01*
X135479163Y-91887879D01*
X135443867Y-91852521D01*
X135443867Y-88662461D01*
X136857626Y-87248702D01*
X138693058Y-87248702D01*
X138727719Y-87283424D01*
X138941037Y-87372001D01*
X139172014Y-87372203D01*
X139385486Y-87283998D01*
X139548954Y-87120815D01*
X139637531Y-86907497D01*
X139637733Y-86676520D01*
X139549528Y-86463048D01*
X139386345Y-86299580D01*
X139173027Y-86211003D01*
X138942050Y-86210801D01*
X138728578Y-86299006D01*
X138693220Y-86334302D01*
X137979939Y-86334302D01*
X137985922Y-86319893D01*
X137986124Y-86088916D01*
X137982692Y-86080610D01*
X138587663Y-86080610D01*
X138718705Y-86168169D01*
X138718705Y-86168169D01*
G37*
X138718705Y-86168169D02*
X138893668Y-86202971D01*
X139326905Y-86202971D01*
X139361566Y-86237693D01*
X139574884Y-86326270D01*
X139805861Y-86326472D01*
X140019333Y-86238267D01*
X140054691Y-86202971D01*
X141438307Y-86202971D01*
X147455759Y-92220424D01*
X147408900Y-92456000D01*
X147474638Y-92786485D01*
X147628904Y-93017360D01*
X147621765Y-93012590D01*
X147446802Y-92977788D01*
X136622316Y-92977788D01*
X136673892Y-92853579D01*
X136674094Y-92622602D01*
X136585889Y-92409130D01*
X136422706Y-92245662D01*
X136209388Y-92157085D01*
X135978411Y-92156883D01*
X135764939Y-92245088D01*
X135690981Y-92318917D01*
X135567178Y-92318917D01*
X135567368Y-92101351D01*
X135479163Y-91887879D01*
X135443867Y-91852521D01*
X135443867Y-88662461D01*
X136857626Y-87248702D01*
X138693058Y-87248702D01*
X138727719Y-87283424D01*
X138941037Y-87372001D01*
X139172014Y-87372203D01*
X139385486Y-87283998D01*
X139548954Y-87120815D01*
X139637531Y-86907497D01*
X139637733Y-86676520D01*
X139549528Y-86463048D01*
X139386345Y-86299580D01*
X139173027Y-86211003D01*
X138942050Y-86210801D01*
X138728578Y-86299006D01*
X138693220Y-86334302D01*
X137979939Y-86334302D01*
X137985922Y-86319893D01*
X137986124Y-86088916D01*
X137982692Y-86080610D01*
X138587663Y-86080610D01*
X138718705Y-86168169D01*
M02*
